<?xml version="1.0" encoding="UTF-8" standalone="no"?>
<!-- Created with Inkscape (http://www.inkscape.org/) -->

<svg
   xmlns:dc="http://purl.org/dc/elements/1.1/"
   xmlns:cc="http://creativecommons.org/ns#"
   xmlns:rdf="http://www.w3.org/1999/02/22-rdf-syntax-ns#"
   xmlns:svg="http://www.w3.org/2000/svg"
   xmlns="http://www.w3.org/2000/svg"
   xmlns:xlink="http://www.w3.org/1999/xlink"
   xmlns:sodipodi="http://sodipodi.sourceforge.net/DTD/sodipodi-0.dtd"
   xmlns:inkscape="http://www.inkscape.org/namespaces/inkscape"
   width="137.53177mm"
   height="96.093956mm"
   viewBox="0 0 137.53177 96.093957"
   version="1.1"
   id="svg10952"
   inkscape:version="0.92.4 (5da689c313, 2019-01-14)"
   sodipodi:docname="bernoulli2.svg">
  <defs
     id="defs10946">
    <linearGradient
       inkscape:collect="always"
       id="linearGradient12012">
      <stop
         style="stop-color:#cccccc;stop-opacity:1;"
         offset="0"
         id="stop12008" />
      <stop
         style="stop-color:#cccccc;stop-opacity:0;"
         offset="1"
         id="stop12010" />
    </linearGradient>
    <linearGradient
       inkscape:collect="always"
       id="linearGradient5987">
      <stop
         style="stop-color:#b3b3b3;stop-opacity:1;"
         offset="0"
         id="stop5983" />
      <stop
         style="stop-color:#b3b3b3;stop-opacity:0;"
         offset="1"
         id="stop5985" />
    </linearGradient>
    <linearGradient
       inkscape:collect="always"
       id="linearGradient5821">
      <stop
         style="stop-color:#b3b3b3;stop-opacity:1;"
         offset="0"
         id="stop5817" />
      <stop
         style="stop-color:#b3b3b3;stop-opacity:0;"
         offset="1"
         id="stop5819" />
    </linearGradient>
    <linearGradient
       inkscape:collect="always"
       xlink:href="#linearGradient5821"
       id="linearGradient5827"
       x1="33.007473"
       y1="125.31558"
       x2="31.979221"
       y2="59.23682"
       gradientUnits="userSpaceOnUse"
       gradientTransform="matrix(0.22913589,-0.13229166,0.13229166,0.22913589,63.18212,97.931544)" />
    <linearGradient
       inkscape:collect="always"
       xlink:href="#linearGradient5987"
       id="linearGradient5989"
       x1="152.84518"
       y1="125.19907"
       x2="152.04787"
       y2="59.342449"
       gradientUnits="userSpaceOnUse"
       gradientTransform="matrix(0.26458333,0,0,0.26458333,66.965828,62.691112)" />
    <linearGradient
       inkscape:collect="always"
       xlink:href="#linearGradient5987"
       id="linearGradient5989-1"
       x1="152.84518"
       y1="125.19907"
       x2="152.04787"
       y2="59.342449"
       gradientUnits="userSpaceOnUse"
       gradientTransform="matrix(0.21337184,-0.12319029,0.19612733,0.3397025,129.07611,46.526724)" />
    <linearGradient
       inkscape:collect="always"
       xlink:href="#linearGradient12012"
       id="linearGradient12014"
       x1="283.57623"
       y1="103.38963"
       x2="283.79208"
       y2="-0.51202315"
       gradientUnits="userSpaceOnUse"
       gradientTransform="matrix(0.22913589,-0.13229166,0.13229166,0.22913589,60.41513,111.49886)" />
    <marker
       inkscape:stockid="Arrow1Lend"
       orient="auto"
       refY="0"
       refX="0"
       id="Arrow1Lend"
       style="overflow:visible"
       inkscape:isstock="true">
      <path
         id="path878"
         d="M 0,0 5,-5 -12.5,0 5,5 Z"
         style="fill:#d40000;fill-opacity:1;fill-rule:evenodd;stroke:#d40000;stroke-width:1.00000003pt;stroke-opacity:1"
         transform="matrix(-0.8,0,0,-0.8,-10,0)"
         inkscape:connector-curvature="0" />
    </marker>
  </defs>
  <sodipodi:namedview
     id="base"
     pagecolor="#ffffff"
     bordercolor="#666666"
     borderopacity="1.0"
     inkscape:pageopacity="0.0"
     inkscape:pageshadow="2"
     inkscape:zoom="1.6265558"
     inkscape:cx="180.47694"
     inkscape:cy="159.78225"
     inkscape:document-units="mm"
     inkscape:current-layer="layer1"
     showgrid="false"
     fit-margin-top="5"
     fit-margin-left="5"
     fit-margin-right="5"
     fit-margin-bottom="5"
     inkscape:window-width="1920"
     inkscape:window-height="1017"
     inkscape:window-x="-8"
     inkscape:window-y="-8"
     inkscape:window-maximized="1"
     inkscape:snap-intersection-paths="true"
     inkscape:object-paths="true"
     inkscape:snap-smooth-nodes="true" />
  <metadata
     id="metadata10949">
    <rdf:RDF>
      <cc:Work
         rdf:about="">
        <dc:format>image/svg+xml</dc:format>
        <dc:type
           rdf:resource="http://purl.org/dc/dcmitype/StillImage" />
        <dc:title></dc:title>
      </cc:Work>
    </rdf:RDF>
  </metadata>
  <g
     inkscape:label="Layer 1"
     inkscape:groupmode="layer"
     id="layer1"
     transform="translate(-63.06949,-37.320395)">
    <path
       style="opacity:1;fill:#00ffff;fill-opacity:1;fill-rule:evenodd;stroke:#e3dbdb;stroke-width:0.10086496;stroke-linecap:square;stroke-linejoin:round;stroke-miterlimit:3.29999995;stroke-dasharray:none;stroke-dashoffset:0;stroke-opacity:1;paint-order:markers stroke fill"
       d="m 96.541995,115.96902 c -1.314822,-1.04348 -2.38655,-2.12311 -3.557365,-3.58361 -0.51763,-0.6457 -0.754236,-1.00879 -1.532088,-2.3511 -0.97983,-1.69092 -1.275643,-2.3317 -1.811443,-3.92432 -0.543819,-1.61648 -1.080029,-4.3672 -0.888251,-4.55668 0.06109,-0.0604 0.06268,-0.11655 0.0046,-0.16357 -0.08033,-0.0651 0.253513,-0.26906 3.642708,-2.225809 3.20348,-1.84953 3.733395,-2.139969 3.747065,-2.053718 0.009,0.05686 0.08143,0.09834 0.16683,0.0956 0.0971,-0.0031 0.405705,0.198554 0.865403,0.565557 1.511034,1.206346 2.688902,2.43489 3.934686,4.10399 0.52051,0.69737 1.78995,2.89803 2.15027,3.72757 0.815,1.87651 1.36387,3.80867 1.63577,5.75835 l 0.0944,0.67702 -3.86557,2.25165 -3.86562,2.25157 -0.721381,-0.57251 z m 0.782214,-0.0833 c -0.132171,-0.005 -0.184275,0.20928 -0.09038,0.37191 0.09848,0.17057 0.23259,0.0788 0.218725,-0.14961 -0.01161,-0.19097 -0.02742,-0.21834 -0.12832,-0.22225 z m 7.396121,-4.03729 c -0.12362,-0.16692 -0.22506,-0.19419 -0.31398,-0.0844 -0.058,0.0716 -0.0419,0.10942 0.0936,0.22037 0.19964,0.16353 0.36613,0.0608 0.22018,-0.13636 z m -7.378033,3.41971 c -0.0313,-0.16438 -0.0596,-0.19957 -0.149049,-0.1854 -0.125342,0.0199 -0.120167,0.009 -0.11049,0.22797 0.01037,0.23443 0.0625,0.29639 0.188267,0.22378 0.06953,-0.0401 0.09571,-0.13799 0.07127,-0.26635 z m 6.862943,-3.78219 c 0.0242,-0.0904 -0.29294,-0.32507 -0.37523,-0.27756 -0.11847,0.0684 -0.0969,0.17624 0.061,0.30497 0.13331,0.10865 0.28118,0.0958 0.31419,-0.0274 z m -6.998665,3.01375 c -0.03978,-0.20888 -0.09584,-0.25937 -0.212925,-0.19177 -0.08235,0.0475 -0.05688,0.40132 0.03235,0.44933 0.127876,0.0688 0.218196,-0.06 0.180581,-0.25756 z m 6.343455,-3.51924 c 0.005,-0.15537 -0.22586,-0.32746 -0.34584,-0.25819 -0.129,0.0745 -0.11368,0.12391 0.0898,0.2898 0.14873,0.12123 0.2518,0.1085 0.256,-0.0316 z m -6.470365,2.87335 c -0.0225,-0.04 -0.05901,-0.14023 -0.08113,-0.2228 -0.03194,-0.11919 -0.06412,-0.13631 -0.156256,-0.0831 -0.142456,0.0823 -0.07349,0.41588 0.08735,0.42258 0.14713,0.006 0.197218,-0.0328 0.150028,-0.11666 z m 5.947145,-3.44132 c -0.0262,-0.0454 -0.35003,-0.31017 -0.36719,-0.30026 -0.0102,0.006 -0.0489,0.0482 -0.0861,0.0941 -0.10021,0.12372 0.2076,0.37498 0.35509,0.28983 0.0605,-0.0349 0.10465,-0.0726 0.0982,-0.0837 z m -6.163252,2.61609 c -0.03571,-0.2253 -0.143048,-0.33483 -0.261234,-0.2666 -0.06356,0.0367 -0.09715,0.0994 -0.07465,0.1394 0.0225,0.04 0.05901,0.14024 0.08113,0.2228 0.03194,0.11923 0.06411,0.13633 0.156333,0.0831 0.06386,-0.0369 0.108153,-0.11728 0.09842,-0.17868 z m 5.428462,-3.28833 c -0.076,-0.1316 -0.12863,-0.15591 -0.24031,-0.11095 -0.12788,0.0515 -0.12885,0.0725 -0.01,0.19821 0.17976,0.18969 0.22971,0.21391 0.29329,0.14222 0.0297,-0.0335 0.0103,-0.13679 -0.0433,-0.22948 z m -5.687969,2.43099 c -0.03254,-0.11417 -0.0862,-0.17715 -0.15332,-0.17994 -0.14713,-0.006 -0.197214,0.0328 -0.150029,0.11665 0.0225,0.04 0.05901,0.14024 0.08113,0.2228 0.03194,0.1192 0.06412,0.13632 0.156248,0.0831 0.07739,-0.0447 0.09936,-0.12549 0.06596,-0.24263 z m 5.245049,-2.94554 c -0.0483,-0.0391 -0.11663,-0.12102 -0.15183,-0.18198 -0.0418,-0.0723 -0.10415,-0.0876 -0.17955,-0.0441 -0.0754,0.0435 -0.0933,0.10524 -0.0516,0.17755 0.10966,0.18994 0.2351,0.25577 0.35523,0.18641 0.0816,-0.0471 0.0898,-0.0876 0.0277,-0.13786 z m -5.463903,2.30715 c -0.03481,-0.21965 -0.143212,-0.33473 -0.254678,-0.27038 -0.07674,0.0443 -0.08709,0.11813 -0.03497,0.24943 0.09157,0.23068 0.325572,0.2476 0.289648,0.0209 z m 4.889793,-2.95164 c -0.10499,-0.17924 -0.24296,-0.23928 -0.32281,-0.14069 -0.10204,0.12597 0.14889,0.41444 0.28975,0.33312 0.0748,-0.0432 0.0852,-0.10359 0.0331,-0.19243 z m -5.198179,2.15374 c -0.0665,-0.2482 -0.116592,-0.29863 -0.231037,-0.23255 -0.07698,0.0444 -0.08704,0.11826 -0.03422,0.25131 0.04113,0.10362 0.09505,0.19382 0.119788,0.20048 0.109064,0.0292 0.182379,-0.0813 0.145433,-0.21922 z m 4.660159,-2.82079 c -0.10754,-0.18626 -0.17699,-0.21501 -0.26298,-0.10885 -0.062,0.0765 0.0666,0.37893 0.17331,0.40752 0.12028,0.0322 0.17517,-0.15058 0.0897,-0.29867 z m -5.007977,2.00081 c -0.09452,-0.16371 -0.138771,-0.18952 -0.232315,-0.13551 -0.09355,0.054 -0.09332,0.10524 0.0012,0.26895 0.09452,0.1637 0.138771,0.18951 0.232316,0.13551 0.09355,-0.054 0.09332,-0.10524 -0.0012,-0.26895 z m 4.583767,-2.44307 c 0.0744,-0.14224 -0.17978,-0.36921 -0.321729,-0.28726 -0.08156,0.0471 -0.08968,0.0876 -0.02764,0.13782 0.04831,0.0391 0.116629,0.12102 0.151829,0.18198 0.0692,0.11981 0.12242,0.11104 0.19754,-0.0325 z m -4.926296,1.71635 c -0.09452,-0.1637 -0.138771,-0.18951 -0.232316,-0.13551 -0.09355,0.054 -0.09332,0.10524 0.0012,0.26895 0.09452,0.16371 0.138771,0.18952 0.232315,0.13551 0.09355,-0.054 0.09332,-0.10524 -0.0012,-0.26895 z m 4.503658,-2.41196 c 0.004,-0.13216 -0.223087,-0.32906 -0.316945,-0.27487 -0.05927,0.0342 -0.04969,0.11155 0.03118,0.25163 0.115556,0.20015 0.280053,0.21353 0.285757,0.0232 z m -4.817269,1.81633 c -0.03571,-0.22529 -0.143048,-0.33482 -0.261234,-0.26659 -0.09355,0.054 -0.09332,0.10524 0.0012,0.26895 0.122725,0.21256 0.293855,0.21102 0.260037,-0.002 z m 4.304541,-2.633 c -0.09452,-0.16371 -0.13878,-0.18951 -0.232315,-0.13551 -0.09355,0.054 -0.09332,0.10524 0.0012,0.26894 0.09452,0.16371 0.138779,0.18952 0.232316,0.13551 0.09355,-0.054 0.09332,-0.10523 -0.0012,-0.26894 z m -4.733766,1.80857 c -0.09452,-0.16371 -0.138771,-0.18952 -0.232316,-0.13551 -0.09355,0.054 -0.09332,0.10524 0.0012,0.26894 0.09452,0.16371 0.138771,0.18952 0.232315,0.13552 0.09355,-0.054 0.09332,-0.10524 -0.0012,-0.26895 z m 4.333458,-2.50192 c -0.09452,-0.16371 -0.138779,-0.18952 -0.232314,-0.13552 -0.09355,0.054 -0.09332,0.10524 0.0012,0.26895 0.09452,0.16371 0.13878,0.18951 0.232317,0.13551 0.09355,-0.054 0.09332,-0.10524 -0.0012,-0.26894 z m -4.791546,1.84192 c -0.09452,-0.1637 -0.138771,-0.18951 -0.232315,-0.13551 -0.09355,0.054 -0.09332,0.10524 0.0012,0.26895 0.09452,0.16371 0.138771,0.18952 0.232316,0.13551 0.09355,-0.054 0.09332,-0.10524 -0.0012,-0.26895 z m 4.391238,-2.53528 c -0.138197,-0.23936 -0.314546,-0.19692 -0.241821,0.0582 0.05357,0.1879 0.157294,0.26024 0.275319,0.1921 0.05664,-0.0327 0.04592,-0.11274 -0.0335,-0.2503 z m -4.750264,1.96587 c -0.04831,-0.0391 -0.116636,-0.12102 -0.15183,-0.18197 -0.04175,-0.0723 -0.104148,-0.0877 -0.179549,-0.0441 -0.120761,0.0697 -0.104176,0.13667 0.07931,0.32015 0.06729,0.0673 0.154481,0.0842 0.224899,0.0435 0.08113,-0.0468 0.08913,-0.0874 0.02717,-0.13754 z m 4.405292,-2.69682 c -0.0955,-0.16541 -0.137096,-0.19105 -0.209259,-0.12893 -0.05931,0.0511 -0.05931,0.14505 -1.8e-5,0.2753 0.07527,0.16528 0.10953,0.18651 0.209257,0.12893 0.0982,-0.0567 0.0982,-0.10524 2e-5,-0.2753 z m -4.96244,1.94625 c -0.09452,-0.16371 -0.138771,-0.18952 -0.232316,-0.13551 -0.08837,0.051 -0.09332,0.10523 -0.02104,0.23042 0.104444,0.1809 0.177301,0.21863 0.293075,0.15179 0.04953,-0.0286 0.03534,-0.1167 -0.03972,-0.24671 z m 4.698202,-2.53918 c -0.02248,-0.04 -0.059,-0.14023 -0.08113,-0.22279 -0.0319,-0.11905 -0.06413,-0.13632 -0.15578,-0.0834 -0.08012,0.0463 -0.09679,0.1207 -0.05433,0.24278 0.03367,0.0968 0.08472,0.18871 0.113465,0.20413 0.08544,0.046 0.222036,-0.0622 0.177803,-0.14074 z m -5.115008,2.00312 c -0.04831,-0.0391 -0.116636,-0.12102 -0.151831,-0.18197 -0.06603,-0.11437 -0.228779,-0.0724 -0.232751,0.0601 -0.0045,0.15081 0.238849,0.32788 0.35694,0.2597 0.08156,-0.0471 0.08968,-0.0876 0.02764,-0.13781 z m 4.807182,-2.80134 c -0.03519,-0.061 -0.07195,-0.16107 -0.08168,-0.22247 -0.0125,-0.0789 -0.05164,-0.0921 -0.133256,-0.0449 -0.120126,0.0694 -0.125839,0.2109 -0.01618,0.40084 0.04175,0.0723 0.104156,0.0876 0.179549,0.0441 0.0754,-0.0435 0.09332,-0.10523 0.05157,-0.17755 z m -5.38002,2.10882 c -0.162423,-0.17281 -0.232892,-0.1916 -0.293817,-0.0784 -0.03402,0.0632 -0.0055,0.14202 0.0888,0.24535 0.108574,0.11895 0.159649,0.13171 0.233829,0.0584 0.07445,-0.0736 0.06824,-0.12215 -0.02881,-0.2254 z m 5.098725,-2.91924 c -0.02641,-0.0926 -0.07767,-0.18437 -0.113898,-0.20388 -0.096,-0.0516 -0.239423,0.0482 -0.191501,0.13337 0.02248,0.04 0.059,0.14024 0.08113,0.2228 0.03194,0.1192 0.0641,0.13633 0.156256,0.0831 0.07614,-0.044 0.09953,-0.1249 0.06802,-0.23541 z m -5.568918,2.49043 c 0.0045,-0.15126 -0.238876,-0.32786 -0.357498,-0.25938 -0.09213,0.0532 -0.0934,0.0896 -0.0061,0.17689 0.06045,0.0604 0.129018,0.14218 0.152385,0.18165 0.0498,0.0841 0.207982,0.01 0.21125,-0.0992 z m 5.315993,-3.29995 c -0.0799,-0.20129 -0.280963,-0.23727 -0.288729,-0.0517 -0.0065,0.15439 0.127731,0.35472 0.225725,0.33697 0.131587,-0.0238 0.144171,-0.0808 0.063,-0.2853 z m -5.923702,2.6265 c -0.06045,-0.0604 -0.129018,-0.14219 -0.152385,-0.18166 -0.0498,-0.0841 -0.207981,-0.01 -0.211249,0.0992 -0.0045,0.15126 0.238875,0.32786 0.357497,0.25938 0.09213,-0.0532 0.0934,-0.0896 0.0061,-0.17689 z m 5.751278,-3.20495 c -3.79e-4,-0.0315 -0.0249,-0.13873 -0.05446,-0.23819 -0.04501,-0.151393 -0.07256,-0.169963 -0.169316,-0.114103 -0.121036,0.06988 -0.08809,0.355163 0.04958,0.429233 0.08488,0.0457 0.175228,0.006 0.174204,-0.0769 z m -6.310333,2.80919 c 0.100211,-0.12372 -0.207604,-0.37498 -0.355096,-0.28983 -0.129191,0.0746 -0.132595,0.0642 0.08199,0.24933 0.18534,0.15988 0.177373,0.1587 0.273114,0.0405 z m 6.097303,-3.753753 c -0.03251,-0.11405 -0.08573,-0.173577 -0.157119,-0.175716 -0.133566,-0.004 -0.155331,0.07199 -0.08765,0.306045 0.04466,0.154431 0.07052,0.171143 0.173212,0.111853 0.08191,-0.04729 0.104916,-0.125155 0.07156,-0.24218 z m -6.629135,3.144763 c -0.0043,-0.007 -0.08363,-0.0789 -0.176293,-0.15887 -0.177106,-0.15278 -0.214393,-0.1545 -0.288132,-0.0133 -0.07439,0.14242 0.267554,0.38796 0.38234,0.27455 0.04945,-0.0489 0.08639,-0.0949 0.08209,-0.10236 z m 6.484134,-3.903753 c -0.08813,-0.309152 -0.312108,-0.303023 -0.261959,0.0072 0.01619,0.100142 0.0579,0.197391 0.09271,0.216112 0.123119,0.06625 0.216625,-0.0571 0.169253,-0.223285 z m -7.128341,3.415973 c 0.02045,-0.0763 -0.332357,-0.2991 -0.406195,-0.25647 -0.09484,0.0547 -0.03621,0.2281 0.107291,0.31723 0.130665,0.0812 0.26838,0.0532 0.298905,-0.0608 z m 7.016389,-4.200999 c -0.01951,-0.202407 -0.101569,-0.282263 -0.219877,-0.213958 -0.08702,0.05024 -0.06667,0.402995 0.02613,0.452925 0.119179,0.06412 0.211939,-0.05027 0.193753,-0.238969 z"
       id="path5839"
       inkscape:connector-curvature="0" />
    <path
       sodipodi:open="true"
       d="m 25.920445,131.94369 a 21.166666,21.166666 0 0 1 0.09332,17.78523"
       sodipodi:end="0.42834079"
       sodipodi:start="5.8443505"
       sodipodi:ry="21.166666"
       sodipodi:rx="21.166666"
       sodipodi:cy="140.93709"
       sodipodi:cx="6.759377"
       sodipodi:type="arc"
       id="path10326-9"
       style="opacity:1;fill:none;fill-opacity:0.99516913;fill-rule:evenodd;stroke:#1c2224;stroke-width:0.2;stroke-linecap:butt;stroke-linejoin:miter;stroke-miterlimit:4;stroke-dasharray:0.4, 0.4;stroke-dashoffset:0;stroke-opacity:1;paint-order:fill markers stroke"
       transform="rotate(-30)" />
    <path
       style="opacity:1;fill:none;fill-opacity:0.99516913;fill-rule:evenodd;stroke:#1c2224;stroke-width:0.2;stroke-linecap:butt;stroke-linejoin:miter;stroke-miterlimit:4;stroke-dasharray:none;stroke-dashoffset:0;stroke-opacity:1;paint-order:fill markers stroke"
       id="path10328-3"
       sodipodi:type="arc"
       sodipodi:cx="-45.174797"
       sodipodi:cy="140.95717"
       sodipodi:rx="21.166666"
       sodipodi:ry="21.166666"
       sodipodi:start="5.8443505"
       sodipodi:end="0.42834079"
       d="m -26.013729,131.96377 a 21.166666,21.166666 0 0 1 0.09332,17.78523"
       sodipodi:open="true"
       transform="matrix(-0.8660254,0.5,0.5,0.8660254,0,0)" />
    <path
       style="fill:none;stroke:#000000;stroke-width:0.2;stroke-linecap:butt;stroke-linejoin:miter;stroke-miterlimit:4;stroke-dasharray:none;stroke-opacity:1"
       d="M 115.57061,85.607531 68.380135,112.85297"
       id="path841"
       inkscape:connector-curvature="0" />
    <ellipse
       style="opacity:1;fill:none;fill-opacity:0.99516913;fill-rule:evenodd;stroke:#1c2224;stroke-width:0.2;stroke-linecap:butt;stroke-linejoin:miter;stroke-miterlimit:4;stroke-dasharray:none;stroke-dashoffset:0;stroke-opacity:1;paint-order:fill markers stroke"
       id="path5927"
       cx="2.7924581"
       cy="145.26314"
       rx="1.120851"
       ry="4.4657865"
       transform="rotate(-30)" />
    <path
       id="circle5929"
       style="opacity:1;fill:none;fill-opacity:0.99516913;fill-rule:evenodd;stroke:#1c2224;stroke-width:0.2;stroke-linecap:butt;stroke-linejoin:miter;stroke-miterlimit:4;stroke-dasharray:none;stroke-dashoffset:0;stroke-opacity:1;paint-order:fill markers stroke"
       sodipodi:type="arc"
       sodipodi:cx="2.8152013"
       sodipodi:cy="136.33249"
       sodipodi:rx="1.120851"
       sodipodi:ry="4.4657865"
       sodipodi:start="1.5910892"
       sodipodi:end="4.8800152"
       sodipodi:open="true"
       d="M 2.7924576,140.79736 A 1.120851,4.4657865 0 0 1 1.8079882,138.2918 1.120851,4.4657865 0 0 1 1.9175884,133.65798 1.120851,4.4657865 0 0 1 3.0022067,131.9293"
       transform="rotate(-30)" />
    <path
       style="opacity:1;fill:#e6e6e6;fill-opacity:0.99516913;fill-rule:evenodd;stroke:#e6e6e6;stroke-width:0.14285713;stroke-linecap:butt;stroke-linejoin:miter;stroke-miterlimit:4;stroke-dasharray:none;stroke-dashoffset:0;stroke-opacity:1;paint-order:fill markers stroke"
       d="m 76.399872,127.71986 c -0.909602,-0.65829 -3.428222,-5.02067 -3.543525,-6.13756 -0.04385,-0.42477 -0.01414,-0.81017 0.06602,-0.85646 0.548285,-0.31655 2.764397,2.51426 3.672592,4.69129 0.625406,1.49916 0.846634,2.51965 0.57964,2.67379 -0.08017,0.0463 -0.428795,-0.1207 -0.774732,-0.37106 z"
       id="path5931"
       inkscape:connector-curvature="0" />
    <path
       inkscape:connector-curvature="0"
       id="path3898"
       d="M 124.47327,101.02739 77.282791,128.27282"
       style="fill:none;stroke:#000000;stroke-width:0.2;stroke-linecap:butt;stroke-linejoin:miter;stroke-miterlimit:4;stroke-dasharray:none;stroke-opacity:1" />
    <path
       sodipodi:open="true"
       d="m 34.860654,131.92361 a 21.166666,21.166666 0 0 1 0.09332,17.78523"
       sodipodi:end="0.42834079"
       sodipodi:start="5.8443505"
       sodipodi:ry="21.166666"
       sodipodi:rx="21.166666"
       sodipodi:cy="140.91701"
       sodipodi:cx="15.699586"
       sodipodi:type="arc"
       id="path10326-7"
       style="opacity:1;fill:none;fill-opacity:0.99516913;fill-rule:evenodd;stroke:#1c2224;stroke-width:0.2;stroke-linecap:butt;stroke-linejoin:miter;stroke-miterlimit:4;stroke-dasharray:0.4, 0.4;stroke-dashoffset:0;stroke-opacity:1;paint-order:fill markers stroke"
       transform="rotate(-30)" />
    <path
       style="opacity:1;fill:none;fill-opacity:0.99516913;fill-rule:evenodd;stroke:#1c2224;stroke-width:0.2;stroke-linecap:butt;stroke-linejoin:miter;stroke-miterlimit:4;stroke-dasharray:none;stroke-dashoffset:0;stroke-opacity:1;paint-order:fill markers stroke"
       id="path10328-8"
       sodipodi:type="arc"
       sodipodi:cx="-54.11499"
       sodipodi:cy="140.93709"
       sodipodi:rx="21.166666"
       sodipodi:ry="21.166666"
       sodipodi:start="5.8443505"
       sodipodi:end="0.42834079"
       d="m -34.953922,131.94369 a 21.166666,21.166666 0 0 1 0.09332,17.78523"
       sodipodi:open="true"
       transform="matrix(-0.8660254,0.5,0.5,0.8660254,0,0)" />
    <path
       style="opacity:1;fill:url(#linearGradient5827);fill-opacity:1;fill-rule:evenodd;stroke:#ffffff;stroke-width:0.10086496;stroke-linecap:square;stroke-linejoin:round;stroke-miterlimit:3.29999995;stroke-dasharray:none;stroke-dashoffset:0;stroke-opacity:1;paint-order:markers stroke fill"
       d="m 77.627454,127.83566 c -0.0099,-0.0172 -0.02464,-0.15898 -0.03274,-0.31518 -0.07261,-1.39889 -1.723682,-4.56841 -3.228073,-6.19685 -0.660054,-0.71447 -1.055392,-0.95521 -1.510334,-0.91971 -0.40555,0.0316 -0.649432,-0.10043 -1.198924,-0.64935 -0.668635,-0.66794 -1.045369,-1.20098 -1.907311,-2.69864 -0.643001,-1.11731 -0.88115,-1.58348 -1.048434,-2.05254 -0.263952,-0.74015 -0.401641,-1.37471 -0.371396,-1.71162 l 0.02266,-0.25246 9.993355,-5.76505 c 5.496344,-3.17078 10.007717,-5.76121 10.025285,-5.75651 0.01757,0.005 0.05394,0.22381 0.08083,0.4869 0.06999,0.68478 0.366165,2.19069 0.600325,3.05236 1.210958,4.45608 3.810815,8.36343 7.477733,11.23836 0.243566,0.19096 0.449216,0.35823 0.457001,0.37172 0.0078,0.0135 -4.340977,2.53894 -9.663909,5.61214 -5.322933,3.07319 -9.686159,5.5736 -9.696059,5.55645 z"
       id="path5805"
       inkscape:connector-curvature="0" />
    <path
       style="opacity:1;fill:url(#linearGradient5989-1);fill-opacity:1;fill-rule:evenodd;stroke:#e3dbdb;stroke-width:0.16760236;stroke-linecap:square;stroke-linejoin:round;stroke-miterlimit:3.29999995;stroke-dasharray:none;stroke-dashoffset:0;stroke-opacity:1;paint-order:markers stroke fill"
       d="m 177.23724,75.363521 c 0.11378,-0.20795 0.0557,-0.439382 -0.191,-0.760865 -0.17989,-0.234368 -0.1999,-0.326226 -0.0994,-0.457636 0.10839,-0.14179 0.0859,-0.217655 -0.16398,-0.552617 -0.24472,-0.32806 -0.27147,-0.411996 -0.17273,-0.541182 0.1175,-0.153697 -0.10403,-0.701692 -0.24965,-0.617617 -0.0405,0.0234 -0.10116,-0.05062 -0.13479,-0.164462 -0.0336,-0.11384 -0.0174,-0.232228 0.036,-0.263073 0.11675,-0.06741 -0.0862,-0.654177 -0.22513,-0.650713 -0.15245,0.0038 -0.30834,-0.333466 -0.18667,-0.403716 0.14656,-0.08461 -0.0416,-0.625607 -0.23505,-0.675768 -0.0822,-0.02134 -0.17997,-0.142119 -0.21724,-0.268458 -0.0373,-0.126292 -0.0199,-0.21722 0.0388,-0.202028 0.15051,0.03901 -0.0857,-0.545744 -0.257,-0.636325 -0.22133,-0.117022 -0.33575,-0.382344 -0.19901,-0.461294 0.10008,-0.05778 0.0665,-0.151404 -0.17346,-0.483842 -0.20413,-0.282762 -0.29472,-0.487674 -0.28853,-0.652562 0.0102,-0.274781 -0.15371,-0.607909 -0.26702,-0.542489 -0.11522,0.06652 -0.29712,-0.304307 -0.28662,-0.584442 0.0105,-0.280773 -0.15214,-0.615943 -0.26673,-0.549783 -0.0418,0.02415 -0.12325,-0.03787 -0.18095,-0.137812 -0.0577,-0.09994 -0.0706,-0.201514 -0.0289,-0.225614 0.0418,-0.02415 -0.003,-0.180184 -0.0988,-0.346754 -0.0962,-0.16657 -0.20915,-0.283055 -0.25089,-0.258955 -0.0418,0.02415 -0.13898,-0.06513 -0.21592,-0.198383 -0.0777,-0.134602 -0.0891,-0.271585 -0.0258,-0.30818 0.071,-0.041 0.0481,-0.180309 -0.0607,-0.368753 -0.1088,-0.188444 -0.21798,-0.277955 -0.28899,-0.236955 -0.0628,0.03625 -0.16135,-0.01588 -0.21905,-0.115817 -0.0577,-0.09994 -0.0536,-0.211363 0.009,-0.247608 0.071,-0.041 0.0481,-0.18031 -0.0607,-0.368755 -0.1088,-0.188442 -0.21798,-0.277955 -0.28899,-0.236955 -0.0634,0.0366 -0.17631,-0.04179 -0.25402,-0.176389 -0.0769,-0.133255 -0.10559,-0.262082 -0.0639,-0.286182 0.0418,-0.02415 -0.003,-0.180186 -0.0988,-0.346755 -0.0962,-0.16657 -0.20915,-0.283055 -0.25089,-0.258955 -0.0418,0.02415 -0.12325,-0.03787 -0.18095,-0.137812 -0.0577,-0.09994 -0.0706,-0.201514 -0.0289,-0.225614 0.0418,-0.02415 -0.003,-0.180184 -0.0988,-0.346754 -0.1088,-0.188443 -0.21798,-0.277955 -0.289,-0.236955 -0.12794,0.07387 -0.33361,-0.218488 -0.28281,-0.402048 0.0503,-0.182063 -0.22372,-0.59619 -0.3974,-0.60052 -0.17163,-0.0043 -0.3928,-0.316198 -0.27322,-0.385233 0.12644,-0.073 -0.0924,-0.358103 -0.43603,-0.568025 -0.18503,-0.113021 -0.29962,-0.236214 -0.26742,-0.287586 0.0886,-0.141548 -0.26465,-0.685253 -0.39597,-0.609433 -0.0634,0.0366 -0.17631,-0.04178 -0.25403,-0.176384 -0.0769,-0.133256 -0.11035,-0.259333 -0.0743,-0.280133 0.036,-0.0208 -0.0317,-0.167598 -0.15059,-0.326231 -0.14816,-0.197817 -0.23913,-0.246177 -0.2893,-0.154046 -0.0601,0.110279 -0.11005,0.04864 -0.27909,-0.343996 -0.17511,-0.407104 -0.25104,-0.495809 -0.50953,-0.594981 -0.24045,-0.09231 -0.29505,-0.151265 -0.26217,-0.283105 0.0507,-0.20315 -0.31219,-0.648724 -0.4592,-0.563849 -0.12641,0.07299 -0.40561,-0.208968 -0.32866,-0.331903 0.0787,-0.12566 -0.33284,-0.578357 -0.45913,-0.505442 -0.12643,0.07299 -0.40563,-0.208961 -0.32867,-0.331902 0.034,-0.0543 -0.0293,-0.188909 -0.15758,-0.334943 -0.12486,-0.142264 -0.24163,-0.194127 -0.2797,-0.124235 -0.0919,0.168638 -0.30418,-0.08487 -0.33342,-0.398095 -0.0228,-0.244233 0.55769,-0.597879 8.65328,-5.271874 l 8.67773,-5.01009 0.21397,0.724461 c 0.70288,2.37985 3.1755,6.802285 5.12078,9.158783 0.76022,0.920942 1.17609,1.254548 1.63468,1.311317 0.72887,0.09023 2.20275,1.962509 4.00226,5.084074 1.29493,2.246892 2.13606,4.051658 2.37196,5.091442 l 0.14582,0.642657 -9.08076,5.270835 c -4.99445,2.898908 -9.04748,5.209824 -9.0067,5.135474 z"
       id="path5967-3"
       inkscape:connector-curvature="0" />
    <path
       style="opacity:1;fill:#00ffff;fill-opacity:1;fill-rule:evenodd;stroke:#e3dbdb;stroke-width:0.11851278;stroke-linecap:square;stroke-linejoin:round;stroke-miterlimit:3.29999995;stroke-dasharray:none;stroke-dashoffset:0;stroke-opacity:1;paint-order:markers stroke fill"
       d="m 169.0452,78.745953 c -1.6547,-1.717065 -3.05817,-3.424709 -4.65848,-5.668166 -0.70752,-0.991854 -1.04714,-1.536585 -2.19915,-3.527292 -1.45125,-2.507645 -1.92037,-3.439983 -2.87338,-5.709503 -0.96726,-2.303508 -2.19719,-6.130427 -2.03741,-6.33944 0.0509,-0.0666 0.0392,-0.141758 -0.0341,-0.218858 -0.10141,-0.106661 0.20679,-0.301277 3.36281,-2.123407 2.98309,-1.722285 3.48025,-1.986332 3.51546,-1.86709 0.0232,0.0786 0.11046,0.151724 0.20123,0.168345 0.103,0.019 0.4811,0.363857 1.06016,0.967111 1.90335,1.982913 3.45583,3.916146 5.18608,6.457998 0.72296,1.062002 2.60541,4.324304 3.18818,5.526082 1.31926,2.717921 2.36728,5.44714 3.12341,8.133791 l 0.26256,0.932928 -3.59488,2.104954 -3.59494,2.104867 -0.90787,-0.94207 z m 0.81634,0.07477 c -0.14252,-0.03841 -0.14704,0.237422 -0.008,0.478529 0.146,0.252873 0.26746,0.16149 0.19811,-0.148963 -0.058,-0.259543 -0.0815,-0.300127 -0.19024,-0.329503 z m 6.94287,-3.663251 c -0.17203,-0.253961 -0.28697,-0.314848 -0.3558,-0.188466 -0.0449,0.08242 -0.0187,0.137104 0.15259,0.318698 0.25241,0.26759 0.40593,0.169197 0.20282,-0.130797 z m -7.07098,2.837107 c -0.0727,-0.228517 -0.11132,-0.282621 -0.20362,-0.284878 -0.12925,-0.0032 -0.12627,-0.01632 -0.0637,0.280171 0.0671,0.317714 0.13758,0.413487 0.25475,0.345837 0.0648,-0.0374 0.0694,-0.162712 0.0126,-0.34115 z m 6.4338,-3.447498 c 0.004,-0.115809 -0.39079,-0.507059 -0.4674,-0.462824 -0.11032,0.06369 -0.0615,0.213873 0.13812,0.424633 0.16844,0.177945 0.32345,0.195902 0.32934,0.03816 z m -6.76235,2.381777 c -0.0924,-0.290397 -0.16435,-0.371675 -0.27339,-0.308725 -0.0766,0.04425 0.035,0.526082 0.14186,0.61194 0.15314,0.123047 0.21893,-0.02862 0.13156,-0.30323 z m 5.94122,-3.217943 c -0.0321,-0.207805 -0.31964,-0.494242 -0.43135,-0.429747 -0.12013,0.06936 -0.0919,0.139476 0.16521,0.411147 0.18794,0.198524 0.29509,0.206014 0.26613,0.01861 z m -6.23108,2.319108 c -0.0336,-0.05912 -0.0966,-0.202657 -0.13993,-0.318961 -0.0626,-0.167886 -0.10114,-0.198584 -0.18696,-0.149034 -0.13265,0.07658 0.0207,0.541688 0.19427,0.589088 0.15875,0.04336 0.203,0.003 0.13253,-0.121043 z m 5.53617,-3.207739 c -0.0388,-0.06724 -0.44825,-0.500641 -0.46422,-0.491416 -0.01,0.0055 -0.0408,0.05316 -0.0696,0.106047 -0.0776,0.142441 0.3116,0.553715 0.4488,0.474505 0.0563,-0.0325 0.0945,-0.07261 0.085,-0.08912 z m -5.96418,2.046475 c -0.092,-0.311477 -0.23289,-0.484375 -0.34288,-0.420875 -0.0592,0.03415 -0.0801,0.110505 -0.0465,0.169633 0.0336,0.05913 0.0966,0.202657 0.13992,0.318962 0.0626,0.16797 0.10115,0.198584 0.18688,0.149084 0.0594,-0.0343 0.0876,-0.131892 0.0626,-0.21678 z m 5.01817,-3.12585 c -0.11265,-0.195108 -0.1747,-0.240383 -0.28338,-0.206573 -0.12444,0.03868 -0.12046,0.06677 0.0369,0.264217 0.23742,0.298015 0.29668,0.34246 0.34748,0.261254 0.0238,-0.03798 -0.0216,-0.181505 -0.10099,-0.318918 z m -5.50028,1.911038 c -0.0621,-0.161289 -0.1345,-0.258761 -0.20689,-0.27855 -0.15874,-0.04337 -0.20299,-0.0029 -0.13254,0.121044 0.0336,0.05912 0.0966,0.202658 0.13993,0.318962 0.0626,0.167889 0.10114,0.198587 0.18679,0.149137 0.0721,-0.04165 0.0763,-0.145032 0.0126,-0.310526 z m 4.90394,-2.708704 c -0.061,-0.06412 -0.15356,-0.190585 -0.20574,-0.28096 -0.0619,-0.107207 -0.13228,-0.142715 -0.20247,-0.10219 -0.0702,0.04055 -0.0746,0.119236 -0.0127,0.226445 0.16258,0.281589 0.31238,0.400057 0.42425,0.335472 0.076,-0.0439 0.0751,-0.09637 -0.003,-0.178747 z m -5.2903,1.798007 c -0.0897,-0.303681 -0.23306,-0.484276 -0.33681,-0.424376 -0.0714,0.04125 -0.0649,0.138059 0.0222,0.327059 0.15301,0.332023 0.40715,0.410679 0.31464,0.09732 z m 4.5227,-2.801714 c -0.15479,-0.26623 -0.31692,-0.379727 -0.37869,-0.266254 -0.079,0.145038 0.25811,0.592856 0.38931,0.517106 0.0696,-0.0402 0.0663,-0.118969 -0.0106,-0.250867 z m -5.04287,1.655151 c -0.13037,-0.349603 -0.19595,-0.429386 -0.30247,-0.367886 -0.0717,0.0414 -0.0648,0.138252 0.0234,0.329778 0.0687,0.14916 0.14787,0.283324 0.17656,0.297812 0.12353,0.06536 0.17555,-0.0658 0.10313,-0.260069 z m 4.30845,-2.680574 c -0.15943,-0.276145 -0.2406,-0.331346 -0.30712,-0.209158 -0.048,0.08811 0.16167,0.525447 0.28254,0.589378 0.13628,0.07205 0.15132,-0.160665 0.0246,-0.38021 z m -4.87604,1.49491 c -0.14012,-0.242706 -0.19362,-0.287961 -0.2807,-0.237681 -0.0871,0.0503 -0.0747,0.119235 0.0655,0.361941 0.14012,0.242703 0.19362,0.287961 0.28071,0.237681 0.0871,-0.0503 0.0746,-0.119236 -0.0655,-0.361941 z m 4.31697,-2.190896 c 0.0456,-0.173511 -0.28036,-0.53939 -0.41252,-0.463085 -0.076,0.04385 -0.075,0.09635 0.003,0.178696 0.061,0.06412 0.15357,0.190586 0.20575,0.280961 0.10256,0.177633 0.15736,0.178561 0.2034,0.0034 z m -4.85663,1.131905 c -0.14013,-0.242703 -0.19354,-0.288011 -0.28071,-0.237681 -0.0871,0.05029 -0.0746,0.119236 0.0655,0.361941 0.14013,0.242704 0.19362,0.287961 0.28071,0.237681 0.0871,-0.0503 0.0746,-0.119235 -0.0655,-0.361941 z m 4.23874,-2.168198 c -0.0273,-0.176752 -0.31705,-0.495743 -0.40444,-0.445283 -0.0552,0.03185 -0.0265,0.138134 0.0934,0.345811 0.17131,0.296728 0.35036,0.353987 0.31103,0.09947 z m -4.7162,1.292379 c -0.092,-0.311473 -0.23289,-0.484374 -0.34287,-0.420874 -0.0871,0.0503 -0.0746,0.119235 0.0655,0.361941 0.18195,0.315137 0.36452,0.353908 0.27743,0.05891 z m 3.97312,-2.512963 c -0.14013,-0.242704 -0.19363,-0.287961 -0.2807,-0.237686 -0.0871,0.0503 -0.0746,0.119235 0.0655,0.361941 0.14012,0.242703 0.19353,0.28801 0.28071,0.23768 0.0871,-0.05029 0.0746,-0.119231 -0.0655,-0.361935 z m -4.62881,1.301878 c -0.14012,-0.242704 -0.19362,-0.287961 -0.2807,-0.237686 -0.0871,0.0503 -0.0746,0.119235 0.0655,0.361941 0.14012,0.242703 0.19362,0.287961 0.2807,0.237681 0.0871,-0.05029 0.0746,-0.119231 -0.0655,-0.361936 z m 4.03533,-2.3298 c -0.14012,-0.242704 -0.19362,-0.287961 -0.2807,-0.237686 -0.0871,0.05029 -0.0746,0.119235 0.0655,0.361941 0.14012,0.242703 0.19353,0.288011 0.28071,0.237681 0.0871,-0.05029 0.0746,-0.119231 -0.0655,-0.361936 z m -4.6826,1.332937 c -0.14012,-0.242704 -0.19353,-0.288011 -0.2807,-0.237681 -0.0871,0.0503 -0.0746,0.119236 0.0655,0.361941 0.14012,0.242703 0.19362,0.287961 0.28071,0.237681 0.0871,-0.0503 0.0746,-0.119236 -0.0655,-0.361941 z m 4.08913,-2.36086 c -0.20488,-0.354868 -0.38327,-0.339895 -0.24462,0.02053 0.10212,0.265464 0.23056,0.38734 0.34018,0.32405 0.0527,-0.03045 0.0222,-0.14062 -0.0956,-0.344561 z m -4.60889,1.509467 c -0.061,-0.06412 -0.15357,-0.190589 -0.20574,-0.280961 -0.0619,-0.107206 -0.13228,-0.142715 -0.20247,-0.10219 -0.11246,0.06493 -0.0787,0.158907 0.16121,0.449437 0.088,0.106567 0.18524,0.150035 0.2508,0.11218 0.0756,-0.04365 0.0744,-0.09619 -0.004,-0.178446 z m 4.0656,-2.574734 c -0.14158,-0.245228 -0.19217,-0.289647 -0.25449,-0.22333 -0.0512,0.05451 -0.0288,0.18089 0.0657,0.370186 0.11989,0.240252 0.16206,0.276694 0.25448,0.223334 0.0914,-0.0528 0.0799,-0.118079 -0.0657,-0.37019 z m -4.84039,1.432411 c -0.14013,-0.242702 -0.19362,-0.287959 -0.28071,-0.237679 -0.0823,0.0475 -0.0746,0.119231 0.0325,0.304829 0.15484,0.268194 0.24175,0.336317 0.34954,0.274082 0.0462,-0.02665 0.01,-0.148528 -0.1013,-0.341262 z m 4.41636,-2.292803 c -0.0336,-0.05914 -0.0966,-0.202656 -0.13993,-0.318963 -0.0625,-0.167695 -0.10114,-0.198583 -0.18645,-0.149333 -0.0746,0.04305 -0.0746,0.139204 -1.1e-4,0.313501 0.0591,0.138292 0.13556,0.274008 0.16963,0.301812 0.10231,0.08221 0.22253,-0.03057 0.15648,-0.1468 z m -4.98992,1.47247 c -0.061,-0.06412 -0.15357,-0.190586 -0.20575,-0.28096 -0.0979,-0.169552 -0.26184,-0.151896 -0.23446,0.02525 0.0311,0.201729 0.33356,0.49795 0.44357,0.434435 0.076,-0.04385 0.075,-0.09635 -0.003,-0.178696 z m 4.47028,-2.619333 c -0.0522,-0.09037 -0.11544,-0.233737 -0.14045,-0.31866 -0.0322,-0.109016 -0.0774,-0.135961 -0.15314,-0.09225 -0.11186,0.06459 -0.0842,0.253557 0.0784,0.535146 0.0619,0.107207 0.13228,0.142715 0.20248,0.102185 0.0702,-0.04055 0.0746,-0.119231 0.0127,-0.22644 z m -5.248,1.55133 c -0.21495,-0.271111 -0.2947,-0.313247 -0.33281,-0.175524 -0.0213,0.07692 0.028,0.189687 0.15344,0.351157 0.1444,0.185916 0.2021,0.215247 0.26392,0.134389 0.062,-0.08115 0.0438,-0.147967 -0.0846,-0.309977 z m 4.75381,-2.708263 c -0.0504,-0.130844 -0.12705,-0.266465 -0.1705,-0.301311 -0.11498,-0.09236 -0.24443,0.0077 -0.17288,0.133622 0.0336,0.05914 0.0966,0.202657 0.13993,0.318962 0.0626,0.167888 0.10106,0.198635 0.18688,0.149085 0.0709,-0.04095 0.0766,-0.14419 0.0165,-0.300319 z m -5.35882,2.019392 c -0.0312,-0.202326 -0.33365,-0.4979 -0.44411,-0.434125 -0.0858,0.04955 -0.0785,0.09822 0.0357,0.236384 0.079,0.0957 0.17183,0.222019 0.20627,0.280662 0.0732,0.12496 0.22467,0.06283 0.20216,-0.08291 z M 166.05503,58.529 c -0.13346,-0.289757 -0.35701,-0.38613 -0.32099,-0.138409 0.03,0.206068 0.22127,0.507458 0.32172,0.507028 0.13497,-6.33e-4 0.13482,-0.07426 -7.7e-4,-0.368599 z m -5.70561,2.11767 c -0.079,-0.0957 -0.17183,-0.222021 -0.20627,-0.280661 -0.0732,-0.124955 -0.22468,-0.06282 -0.20217,0.08291 0.0312,0.202328 0.33366,0.497903 0.44411,0.434133 0.0858,-0.04955 0.0785,-0.09822 -0.0357,-0.236387 z m 5.38319,-2.936669 c -0.008,-0.04248 -0.0598,-0.1925 -0.11516,-0.333261 -0.0842,-0.214329 -0.11807,-0.245916 -0.20823,-0.193866 -0.11271,0.06508 -0.009,0.456558 0.15548,0.589027 0.10165,0.08167 0.18869,0.04959 0.16786,-0.06187 z m -6.07533,2.271032 c 0.0776,-0.142446 -0.31161,-0.553717 -0.4488,-0.474507 -0.1203,0.06946 -0.12641,0.05472 0.14714,0.354858 0.23637,0.2592 0.22755,0.255724 0.30164,0.119659 z m 5.62209,-3.59205 c -0.062,-0.161134 -0.13316,-0.25384 -0.20992,-0.273793 -0.14374,-0.03727 -0.14887,0.05973 -0.0206,0.390612 0.0846,0.218331 0.11626,0.246964 0.21187,0.191764 0.0763,-0.04405 0.0823,-0.14325 0.0187,-0.308573 z m -6.33602,2.646164 c -0.006,-0.01104 -0.10826,-0.1261 -0.22639,-0.255719 -0.22581,-0.247718 -0.26608,-0.25894 -0.31121,-0.08671 -0.0455,0.173746 0.37861,0.585579 0.47428,0.460459 0.0413,-0.05394 0.0697,-0.107003 0.0633,-0.118045 z m 5.99981,-3.701397 c -0.16808,-0.436726 -0.406,-0.481988 -0.27833,-0.05289 0.0412,0.138542 0.10894,0.279301 0.15066,0.31276 0.14749,0.11845 0.21795,-0.02507 0.12764,-0.259848 z m -6.80494,2.891687 c 0.004,-0.09779 -0.42671,-0.48155 -0.49547,-0.44185 -0.0883,0.05098 0.0158,0.298088 0.19042,0.452208 0.15907,0.140322 0.29959,0.135561 0.30503,-0.01035 z m 6.49784,-3.974038 c -0.0692,-0.27683 -0.17597,-0.403802 -0.28613,-0.340202 -0.0811,0.0468 0.0249,0.525988 0.13605,0.615291 0.14275,0.114658 0.21458,-0.01702 0.15008,-0.275089 z"
       id="path5839-3"
       inkscape:connector-curvature="0" />
    <path
       sodipodi:open="true"
       d="m 107.30065,127.87212 a 19.710445,31.380371 0 0 1 0.0869,26.36727"
       sodipodi:end="0.42834079"
       sodipodi:start="5.8443505"
       sodipodi:ry="31.380371"
       sodipodi:rx="19.710445"
       sodipodi:cy="141.20517"
       sodipodi:cx="89.457825"
       sodipodi:type="arc"
       id="path10326-9-4"
       style="opacity:1;fill:none;fill-opacity:0.99516913;fill-rule:evenodd;stroke:#1c2224;stroke-width:0.23499294;stroke-linecap:butt;stroke-linejoin:miter;stroke-miterlimit:4;stroke-dasharray:0.46998587, 0.46998587;stroke-dashoffset:0;stroke-opacity:1;paint-order:fill markers stroke"
       transform="rotate(-30)" />
    <path
       style="opacity:1;fill:none;fill-opacity:0.99516913;fill-rule:evenodd;stroke:#1c2224;stroke-width:0.23499294;stroke-linecap:butt;stroke-linejoin:miter;stroke-miterlimit:4;stroke-dasharray:none;stroke-dashoffset:0;stroke-opacity:1;paint-order:fill markers stroke"
       id="path10328-3-6"
       sodipodi:type="arc"
       sodipodi:cx="-125.23029"
       sodipodi:cy="141.23494"
       sodipodi:rx="19.710445"
       sodipodi:ry="31.380371"
       sodipodi:start="5.8443505"
       sodipodi:end="0.42834079"
       d="m -107.38746,127.90189 a 19.710445,31.380371 0 0 1 0.0869,26.36727"
       sodipodi:open="true"
       transform="matrix(-0.8660254,0.5,0.5,0.8660254,0,0)" />
    <path
       style="fill:none;stroke:#000000;stroke-width:0.2;stroke-linecap:butt;stroke-linejoin:miter;stroke-miterlimit:4;stroke-dasharray:none;stroke-opacity:1"
       d="m 182.13912,42.461554 -43.94387,25.37101"
       id="path841-1"
       inkscape:connector-curvature="0" />
    <ellipse
       ry="6.6206951"
       rx="1.043739"
       cy="-134.46303"
       cx="-136.50563"
       id="ellipse5939-6"
       style="opacity:1;fill:none;fill-opacity:0.99516913;fill-rule:evenodd;stroke:#1c2224;stroke-width:0.23499294;stroke-linecap:butt;stroke-linejoin:miter;stroke-miterlimit:4;stroke-dasharray:none;stroke-dashoffset:0;stroke-opacity:1;paint-order:fill markers stroke"
       transform="rotate(150)" />
    <path
       d="m -136.50562,-141.08373 a 1.043739,6.6206951 0 0 1 -0.91674,-3.71458 1.043739,6.6206951 0 0 1 0.10206,-6.86982 1.043739,6.6206951 0 0 1 1.01,-2.56283"
       sodipodi:open="true"
       sodipodi:end="4.8800152"
       sodipodi:start="1.5910892"
       sodipodi:ry="6.6206951"
       sodipodi:rx="1.043739"
       sodipodi:cy="-147.70306"
       sodipodi:cx="-136.48444"
       sodipodi:type="arc"
       style="opacity:1;fill:none;fill-opacity:0.99516913;fill-rule:evenodd;stroke:#1c2224;stroke-width:0.23499294;stroke-linecap:butt;stroke-linejoin:miter;stroke-miterlimit:4;stroke-dasharray:none;stroke-dashoffset:0;stroke-opacity:1;paint-order:fill markers stroke"
       id="path5941-9"
       transform="rotate(150)" />
    <path
       inkscape:connector-curvature="0"
       id="path5943-5"
       d="m 183.21501,43.415886 c 1.12956,1.102365 4.8635,7.569753 5.25341,9.09917 0.14827,0.581655 0.20852,1.092825 0.13388,1.13592 -0.51058,0.29478 -3.55549,-4.040886 -5.04612,-7.185164 -1.02647,-2.165229 -1.5066,-3.590293 -1.25797,-3.733838 0.0746,-0.0431 0.4872,0.264665 0.9168,0.683912 z"
       style="opacity:1;fill:#e6e6e6;fill-opacity:0.99516913;fill-rule:evenodd;stroke:#e6e6e6;stroke-width:0.16785209;stroke-linecap:butt;stroke-linejoin:miter;stroke-miterlimit:4;stroke-dasharray:none;stroke-dashoffset:0;stroke-opacity:1;paint-order:fill markers stroke" />
    <path
       inkscape:connector-curvature="0"
       id="path3898-1"
       d="m 195.33765,65.322067 -43.94388,25.37101"
       style="fill:none;stroke:#000000;stroke-width:0.2;stroke-linecap:butt;stroke-linejoin:miter;stroke-miterlimit:4;stroke-dasharray:none;stroke-opacity:1" />
    <path
       sodipodi:open="true"
       d="m 115.62573,127.84235 a 19.710445,31.380371 0 0 1 0.0869,26.36727"
       sodipodi:end="0.42834079"
       sodipodi:start="5.8443505"
       sodipodi:ry="31.380371"
       sodipodi:rx="19.710445"
       sodipodi:cy="141.1754"
       sodipodi:cx="97.782898"
       sodipodi:type="arc"
       id="path10326-7-7"
       style="opacity:1;fill:none;fill-opacity:0.99516913;fill-rule:evenodd;stroke:#1c2224;stroke-width:0.23499294;stroke-linecap:butt;stroke-linejoin:miter;stroke-miterlimit:4;stroke-dasharray:0.46998587, 0.46998587;stroke-dashoffset:0;stroke-opacity:1;paint-order:fill markers stroke"
       transform="rotate(-30)" />
    <path
       style="opacity:1;fill:none;fill-opacity:0.99516913;fill-rule:evenodd;stroke:#1c2224;stroke-width:0.23499294;stroke-linecap:butt;stroke-linejoin:miter;stroke-miterlimit:4;stroke-dasharray:none;stroke-dashoffset:0;stroke-opacity:1;paint-order:fill markers stroke"
       id="path10328-8-3"
       sodipodi:type="arc"
       sodipodi:cx="-133.5554"
       sodipodi:cy="141.20517"
       sodipodi:rx="19.710445"
       sodipodi:ry="31.380371"
       sodipodi:start="5.8443505"
       sodipodi:end="0.42834079"
       d="m -115.71258,127.87212 a 19.710445,31.380371 0 0 1 0.0869,26.36727"
       sodipodi:open="true"
       transform="matrix(-0.8660254,0.5,0.5,0.8660254,0,0)" />
    <path
       style="fill:none;stroke:#000000;stroke-width:0.2;stroke-linecap:butt;stroke-linejoin:miter;stroke-miterlimit:4;stroke-dasharray:none;stroke-opacity:1"
       d="m 115.57061,85.607531 c 11.71168,-6.712803 21.6095,-16.548847 22.62464,-17.774967"
       id="path11934"
       inkscape:connector-curvature="0"
       sodipodi:nodetypes="cc" />
    <path
       sodipodi:nodetypes="cc"
       inkscape:connector-curvature="0"
       id="path11936"
       d="m 124.47327,101.02739 c 11.66707,-6.790074 25.32193,-10.118727 26.9205,-10.334313"
       style="fill:none;stroke:#000000;stroke-width:0.21025398;stroke-linecap:butt;stroke-linejoin:miter;stroke-miterlimit:4;stroke-dasharray:none;stroke-opacity:1" />
    <path
       style="opacity:1;fill:url(#linearGradient12014);fill-opacity:1;fill-rule:evenodd;stroke:#e3dbdb;stroke-width:0.10086496;stroke-linecap:square;stroke-linejoin:round;stroke-miterlimit:4;stroke-dasharray:none;stroke-dashoffset:0;stroke-opacity:1;paint-order:markers stroke fill"
       d="m 150.65024,90.663253 c -0.9022,0.156023 -4.7884,1.226407 -7.04574,1.940624 -2.76751,0.875632 -6.57557,2.267994 -9.09637,3.325959 -5.09404,2.137932 -5.39492,2.296403 -17.63181,9.286544 l -11.55548,6.6009 -0.15458,-0.32118 c -0.085,-0.17666 -0.12687,-0.43116 -0.093,-0.56556 0.0339,-0.13441 -0.0211,-0.31983 -0.12208,-0.41203 -0.11325,-0.10337 -0.12852,-0.23572 -0.0398,-0.3452 0.0963,-0.11887 0.0753,-0.24012 -0.0635,-0.3668 -0.11401,-0.10407 -0.15786,-0.21777 -0.0974,-0.25266 0.16067,-0.0928 -0.01,-0.60982 -0.17188,-0.52198 -0.0747,0.0404 -0.0808,-0.0569 -0.0136,-0.21624 0.0813,-0.19275 0.0516,-0.36118 -0.0888,-0.50326 -0.12304,-0.12453 -0.18097,-0.32562 -0.13895,-0.48243 0.0546,-0.20381 0.0183,-0.28877 -0.15012,-0.3511 -0.16931,-0.0627 -0.20319,-0.15309 -0.14238,-0.38004 0.0608,-0.22695 0.0269,-0.31737 -0.14237,-0.38003 -0.16931,-0.0627 -0.20319,-0.15309 -0.14238,-0.38004 0.0638,-0.2382 0.0319,-0.31552 -0.1593,-0.3863 -0.18929,-0.0701 -0.21864,-0.12651 -0.14092,-0.27097 0.0625,-0.1161 0.0103,-0.27324 -0.14347,-0.43195 -0.15391,-0.15888 -0.20024,-0.29867 -0.12757,-0.38499 0.0893,-0.10608 0.0454,-0.17407 -0.20192,-0.3129 -0.22487,-0.12622 -0.28541,-0.21185 -0.20996,-0.29694 0.1429,-0.16115 -0.0929,-0.54728 -0.32197,-0.5273 -0.14669,0.0128 -0.16226,-0.0142 -0.0778,-0.13482 0.13667,-0.19531 -0.0865,-0.58184 -0.31739,-0.54974 -0.13409,0.0186 -0.15261,-0.03 -0.0747,-0.19612 0.0831,-0.17731 0.0513,-0.24896 -0.16132,-0.36307 -0.14569,-0.0782 -0.30132,-0.2749 -0.34583,-0.43712 -0.0492,-0.17931 -0.16757,-0.29917 -0.30185,-0.30572 -0.18678,-0.009 -0.20412,-0.0435 -0.11224,-0.22288 0.0873,-0.1704 0.0566,-0.24006 -0.15624,-0.35428 -0.1457,-0.0782 -0.29964,-0.26877 -0.3421,-0.4235 -0.0476,-0.17338 -0.13153,-0.24998 -0.21877,-0.19961 -0.0915,0.0528 -0.17339,-0.0299 -0.23154,-0.23389 -0.0571,-0.20044 -0.183699,-0.331621 -0.346817,-0.359477 -0.183893,-0.0314 -0.246393,-0.105101 -0.220035,-0.259466 0.02628,-0.153875 -0.04017,-0.236235 -0.232061,-0.287653 -0.153234,-0.04106 -0.302139,-0.193247 -0.346209,-0.353843 -0.05047,-0.183933 -0.1544,-0.269546 -0.299002,-0.246663 -0.160372,0.02542 -0.256761,-0.06858 -0.348548,-0.339913 -0.09894,-0.292463 -0.16871,-0.350894 -0.31686,-0.265359 -0.142042,0.08201 -0.212488,0.03075 -0.279158,-0.203142 -0.06109,-0.214295 -0.15842,-0.301855 -0.309039,-0.27798 -0.137521,0.0218 -0.23396,-0.0541 -0.257506,-0.202649 -0.02284,-0.144085 -0.146318,-0.249196 -0.313718,-0.267367 -0.156815,-0.01697 -0.29124,-0.125559 -0.311183,-0.251383 -0.03151,-0.198816 1.213263,-0.948526 12.148966,-7.317143 13.1222,-7.64196 12.9852,-7.555414 17.68774,-11.173483 3.88054,-2.985635 8.01769,-6.569654 10.66041,-9.235117 l 1.24573,-1.256462 9.23973,-5.334557 c 7.57075,-4.370975 9.25561,-5.307034 9.32768,-5.182191 0.0484,0.0838 0.16019,0.452597 0.24845,0.819549 0.28185,1.171759 1.44157,4.479418 2.19838,6.270062 1.03967,2.459896 4.09184,7.741734 5.67481,9.820325 1.2371,1.624462 2.96012,3.642541 4.07535,4.773227 l 0.70202,0.711756 -9.26679,5.339308 c -7.85424,4.525451 -9.35219,5.354093 -9.82714,5.436229 z"
       id="path11998"
       inkscape:connector-curvature="0" />
    <text
       xml:space="preserve"
       style="font-style:normal;font-variant:normal;font-weight:normal;font-stretch:normal;font-size:3.52777767px;line-height:1.25;font-family:Calibri;-inkscape-font-specification:'Calibri, Normal';font-variant-ligatures:normal;font-variant-caps:normal;font-variant-numeric:normal;font-feature-settings:normal;text-align:start;letter-spacing:0px;word-spacing:0px;writing-mode:lr-tb;text-anchor:start;fill:#000000;fill-opacity:1;stroke:none;stroke-width:0.26458332"
       x="101.41944"
       y="116.73241"
       id="text12018"><tspan
         sodipodi:role="line"
         id="tspan12016"
         x="101.41944"
         y="116.73241"
         style="font-style:normal;font-variant:normal;font-weight:normal;font-stretch:normal;font-family:'Cambria Math';-inkscape-font-specification:'Cambria Math';fill:#ff0000;stroke-width:0.26458332">p<tspan
   style="font-size:64.99999762%;baseline-shift:sub;fill:#ff0000"
   id="tspan12024">1</tspan>, z<tspan
   style="font-size:64.99999762%;baseline-shift:sub;fill:#ff0000"
   id="tspan12022">1</tspan>, v<tspan
   style="font-size:64.99999762%;baseline-shift:sub;fill:#ff0000"
   id="tspan12020">1</tspan></tspan></text>
    <text
       id="text12034"
       y="79.63723"
       x="174.67577"
       style="font-style:normal;font-variant:normal;font-weight:normal;font-stretch:normal;font-size:3.52777767px;line-height:1.25;font-family:Calibri;-inkscape-font-specification:'Calibri, Normal';font-variant-ligatures:normal;font-variant-caps:normal;font-variant-numeric:normal;font-feature-settings:normal;text-align:start;letter-spacing:0px;word-spacing:0px;writing-mode:lr-tb;text-anchor:start;fill:#000000;fill-opacity:1;stroke:none;stroke-width:0.26458332"
       xml:space="preserve"><tspan
         style="font-style:normal;font-variant:normal;font-weight:normal;font-stretch:normal;font-family:'Cambria Math';-inkscape-font-specification:'Cambria Math';fill:#ff0000;stroke-width:0.26458332"
         y="79.63723"
         x="174.67577"
         id="tspan12032"
         sodipodi:role="line">p<tspan
   style="font-size:64.99999762%;baseline-shift:sub"
   id="tspan12040">2</tspan>, z<tspan
   style="font-size:64.99999762%;baseline-shift:sub"
   id="tspan12038">2</tspan>, v<tspan
   style="font-size:64.99999762%;baseline-shift:sub"
   id="tspan12036">2</tspan></tspan></text>
    <path
       style="fill:#d40000;stroke:#d40000;stroke-width:0.26499999;stroke-linecap:butt;stroke-linejoin:miter;stroke-miterlimit:4;stroke-dasharray:none;stroke-opacity:1;marker-end:url(#Arrow1Lend)"
       d="M 123.99429,91.574779 144.046,79.997919"
       id="path1473"
       inkscape:connector-curvature="0" />
    <text
       xml:space="preserve"
       style="font-style:normal;font-variant:normal;font-weight:normal;font-stretch:normal;font-size:3.52777767px;line-height:1.25;font-family:Calibri;-inkscape-font-specification:'Calibri, Normal';font-variant-ligatures:normal;font-variant-caps:normal;font-variant-numeric:normal;font-feature-settings:normal;text-align:start;letter-spacing:0px;word-spacing:0px;writing-mode:lr-tb;text-anchor:start;fill:#d40000;fill-opacity:1;stroke:none;stroke-width:0.26458332"
       x="68.833038"
       y="140.70004"
       id="text1501"
       transform="rotate(-30)"><tspan
         sodipodi:role="line"
         id="tspan1499"
         x="68.833038"
         y="140.70004"
         style="fill:#d40000;stroke-width:0.26458332">Flow</tspan></text>
  </g>
</svg>
