<?xml version="1.0" encoding="UTF-8" standalone="no"?>
<svg
   height="48.054035"
   width="149.53578"
   viewBox="-0.01 -0.05 1.5252649 0.24027018"
   version="1.1"
   id="svg939"
   sodipodi:docname="draglift2.svg"
   inkscape:version="1.1.1 (3bf5ae0d25, 2021-09-20)"
   inkscape:export-filename="C:\Users\Kevin\Documents\GitHub\kdusling.github.io\teaching\Applied-Fluids\Notes\img\draglift.png"
   inkscape:export-xdpi="688"
   inkscape:export-ydpi="688"
   xmlns:inkscape="http://www.inkscape.org/namespaces/inkscape"
   xmlns:sodipodi="http://sodipodi.sourceforge.net/DTD/sodipodi-0.dtd"
   xmlns="http://www.w3.org/2000/svg"
   xmlns:svg="http://www.w3.org/2000/svg">
  <defs
     id="defs943">
    <marker
       style="overflow:visible"
       id="marker18634"
       refX="0"
       refY="0"
       orient="auto"
       inkscape:stockid="Arrow1Lend"
       inkscape:isstock="true">
      <path
         transform="matrix(-0.8,0,0,-0.8,-10,0)"
         style="fill:context-stroke;fill-rule:evenodd;stroke:context-stroke;stroke-width:1pt"
         d="M 0,0 5,-5 -12.5,0 5,5 Z"
         id="path18632" />
    </marker>
    <marker
       style="overflow:visible"
       id="Arrow1Lend"
       refX="0"
       refY="0"
       orient="auto"
       inkscape:stockid="Arrow1Lend"
       inkscape:isstock="true">
      <path
         transform="matrix(-0.8,0,0,-0.8,-10,0)"
         style="fill:context-stroke;fill-rule:evenodd;stroke:context-stroke;stroke-width:1pt"
         d="M 0,0 5,-5 -12.5,0 5,5 Z"
         id="path1077" />
    </marker>
    <marker
       style="overflow:visible"
       id="marker18634-4"
       refX="0"
       refY="0"
       orient="auto"
       inkscape:stockid="Arrow1Lend"
       inkscape:isstock="true">
      <path
         transform="matrix(-0.8,0,0,-0.8,-10,0)"
         style="fill:context-stroke;fill-rule:evenodd;stroke:context-stroke;stroke-width:1pt"
         d="M 0,0 5,-5 -12.5,0 5,5 Z"
         id="path18632-6" />
    </marker>
  </defs>
  <sodipodi:namedview
     id="namedview941"
     pagecolor="#ffffff"
     bordercolor="#666666"
     borderopacity="1.0"
     inkscape:pageshadow="2"
     inkscape:pageopacity="0.0"
     inkscape:pagecheckerboard="0"
     showgrid="false"
     inkscape:zoom="3.8961584"
     inkscape:cx="51.075952"
     inkscape:cy="21.559698"
     inkscape:window-width="1729"
     inkscape:window-height="966"
     inkscape:window-x="70"
     inkscape:window-y="2"
     inkscape:window-maximized="0"
     inkscape:current-layer="svg939"
     fit-margin-left="5"
     fit-margin-top="5"
     fit-margin-right="5"
     fit-margin-bottom="5" />
  <polyline
     points="       1.000030  0.001260       0.997300  0.001700       0.989140  0.003020       0.975630  0.005180       0.956930  0.008120       0.933240  0.011760       0.904820  0.016020       0.871970  0.020790       0.835060  0.025970       0.794490  0.031450       0.750700  0.037120       0.704170  0.042850       0.655410  0.048540       0.604960  0.054050       0.553350  0.059240       0.501170  0.063970       0.448970  0.068110       0.397330  0.071500       0.346810  0.074020       0.297960  0.075540       0.251310  0.075970       0.207380  0.075240       0.166040  0.073200       0.127320  0.069150       0.092300  0.062650       0.062030  0.053820       0.037300  0.043240       0.018650  0.031760       0.006280  0.020300       0.000150  0.009560       0.000000  0.000000       0.005330 -0.007920       0.015570 -0.014010       0.030290 -0.018700       0.049150 -0.022480       0.071950 -0.025860       0.098680 -0.029220       0.129540 -0.032820       0.164830 -0.036600       0.204830 -0.040160       0.248690 -0.042830       0.295310 -0.044460       0.344180 -0.045100       0.394760 -0.044820       0.446500 -0.043710       0.498830 -0.041880       0.551170 -0.039450       0.602960 -0.036550       0.653600 -0.033270       0.702570 -0.029750       0.749300 -0.026070       0.793300 -0.022350       0.834070 -0.018660       0.871180 -0.015120       0.904200 -0.011800       0.932790 -0.008800       0.956610 -0.006210       0.975430 -0.004100       0.989010 -0.002540       0.997220 -0.001580       0.999970 -0.001260     "
     style="fill:#cccccc;stroke:#000000;stroke-width:0.002"
     id="polyline937"
     transform="matrix(1,0,0,-1,0.46407585,0.17359242)" />
  <path
     style="fill:#ff0000;stroke:#ff0000;stroke-width:0.00306;stroke-linecap:butt;stroke-linejoin:miter;stroke-miterlimit:4;stroke-dasharray:none;stroke-opacity:1;marker-end:url(#Arrow1Lend)"
     d="M 0.83502305,0.1548331 V -0.05198602"
     id="path1039" />
  <path
     style="fill:#ff0000;stroke:#ff0000;stroke-width:0.00214058;stroke-linecap:butt;stroke-linejoin:miter;stroke-miterlimit:4;stroke-dasharray:none;stroke-opacity:1;marker-end:url(#Arrow1Lend)"
     d="m 0.83502305,0.1548331 h 0.1012072"
     id="path1422" />
  <text
     xml:space="preserve"
     style="font-size:0.031609px;line-height:0.95;font-family:Cambria;-inkscape-font-specification:Cambria;letter-spacing:0px;word-spacing:0px;writing-mode:lr-tb;stroke-width:0;stroke-miterlimit:4;stroke-dasharray:none"
     x="0.94699073"
     y="0.16132119"
     id="text1888-6"><tspan
       sodipodi:role="line"
       id="tspan1886-7"
       style="font-size:0.031609px;fill:#ff0000;stroke:#ff0000;stroke-width:0;stroke-miterlimit:4;stroke-dasharray:none"
       x="0.94699073"
       y="0.16132119">F<tspan
   style="font-size:0.0205458px;baseline-shift:sub;stroke-width:0"
   id="tspan13070">D</tspan> (Drag)</tspan></text>
  <text
     xml:space="preserve"
     style="font-size:0.031609px;line-height:0.95;font-family:Cambria;-inkscape-font-specification:Cambria;letter-spacing:0px;word-spacing:0px;writing-mode:lr-tb;stroke-width:0;stroke-miterlimit:4;stroke-dasharray:none"
     x="0.78418207"
     y="-0.075777143"
     id="text1888-6-3"><tspan
       sodipodi:role="line"
       id="tspan1886-7-1"
       style="font-size:0.031609px;fill:#ff0000;stroke:#ff0000;stroke-width:0;stroke-miterlimit:4;stroke-dasharray:none"
       x="0.78418207"
       y="-0.075777143">F<tspan
   style="font-size:65%;baseline-shift:sub"
   id="tspan14508">L</tspan> (Lift)</tspan></text>
  <text
     xml:space="preserve"
     style="font-size:0.031609px;line-height:0.95;font-family:Cambria;-inkscape-font-specification:Cambria;letter-spacing:0px;word-spacing:0px;writing-mode:lr-tb;fill:#0000ff;stroke-width:0;stroke-miterlimit:4;stroke-dasharray:none"
     x="0.04335558"
     y="-0.089753449"
     id="text1888-6-3-9"><tspan
       sodipodi:role="line"
       id="tspan1886-7-1-1"
       style="font-size:0.031609px;fill:#0000ff;stroke:#ff0000;stroke-width:0;stroke-miterlimit:4;stroke-dasharray:none"
       x="0.04335558"
       y="-0.089753449">Fluid at rest</tspan></text>
  <path
     style="fill:none;stroke:#0000ff;stroke-width:0.00204;stroke-linecap:butt;stroke-linejoin:miter;stroke-miterlimit:4;stroke-dasharray:none;stroke-opacity:1;marker-end:url(#marker18634-4)"
     d="M 0.48822305,0.1548331 H 0.36256075"
     id="path18799" />
  <text
     xml:space="preserve"
     style="font-size:0.0544px;line-height:0.95;font-family:Cambria;-inkscape-font-specification:Cambria;letter-spacing:0px;word-spacing:0px;writing-mode:lr-tb;fill:#0000ff;stroke-width:0;stroke-miterlimit:4;stroke-dasharray:none"
     x="0.32347766"
     y="0.16157103"
     id="text6104"><tspan
       sodipodi:role="line"
       id="tspan6102"
       style="font-size:0.0544px;fill:#0000ff;stroke:#ff0000;stroke-width:0;stroke-miterlimit:4;stroke-dasharray:none"
       x="0.32347766"
       y="0.16157103">v</tspan></text>
</svg>
