<?xml version="1.0" encoding="UTF-8" standalone="no"?>
<!-- Created with Inkscape (http://www.inkscape.org/) -->

<svg
   xmlns:dc="http://purl.org/dc/elements/1.1/"
   xmlns:cc="http://creativecommons.org/ns#"
   xmlns:rdf="http://www.w3.org/1999/02/22-rdf-syntax-ns#"
   xmlns:svg="http://www.w3.org/2000/svg"
   xmlns="http://www.w3.org/2000/svg"
   xmlns:sodipodi="http://sodipodi.sourceforge.net/DTD/sodipodi-0.dtd"
   xmlns:inkscape="http://www.inkscape.org/namespaces/inkscape"
   width="210mm"
   height="297mm"
   viewBox="0 0 210 297"
   version="1.1"
   id="svg8"
   inkscape:version="0.92.4 (5da689c313, 2019-01-14)"
   sodipodi:docname="faucet.svg">
  <defs
     id="defs2">
    <marker
       inkscape:stockid="Arrow1Lstart"
       orient="auto"
       refY="0.0"
       refX="0.0"
       id="Arrow1Lstart"
       style="overflow:visible"
       inkscape:isstock="true">
      <path
         id="path6292"
         d="M 0.0,0.0 L 5.0,-5.0 L -12.5,0.0 L 5.0,5.0 L 0.0,0.0 z "
         style="fill-rule:evenodd;stroke:#ff0000;stroke-width:1pt;stroke-opacity:1;fill:#ff0000;fill-opacity:1"
         transform="scale(0.8) translate(12.5,0)" />
    </marker>
    <marker
       inkscape:stockid="Arrow1Lend"
       orient="auto"
       refY="0.0"
       refX="0.0"
       id="marker8736"
       style="overflow:visible;"
       inkscape:isstock="true">
      <path
         id="path8734"
         d="M 0.0,0.0 L 5.0,-5.0 L -12.5,0.0 L 5.0,5.0 L 0.0,0.0 z "
         style="fill-rule:evenodd;stroke:#ff0000;stroke-width:1pt;stroke-opacity:1;fill:#ff0000;fill-opacity:1"
         transform="scale(0.8) rotate(180) translate(12.5,0)" />
    </marker>
    <marker
       inkscape:isstock="true"
       style="overflow:visible;"
       id="marker8084"
       refX="0.0"
       refY="0.0"
       orient="auto"
       inkscape:stockid="Arrow1Lend"
       inkscape:collect="always">
      <path
         transform="scale(0.8) rotate(180) translate(12.5,0)"
         style="fill-rule:evenodd;stroke:#ff0000;stroke-width:1pt;stroke-opacity:1;fill:#ff0000;fill-opacity:1"
         d="M 0.0,0.0 L 5.0,-5.0 L -12.5,0.0 L 5.0,5.0 L 0.0,0.0 z "
         id="path8082" />
    </marker>
    <marker
       inkscape:isstock="true"
       style="overflow:visible;"
       id="marker6800"
       refX="0.0"
       refY="0.0"
       orient="auto"
       inkscape:stockid="Arrow1Lend"
       inkscape:collect="always">
      <path
         transform="scale(0.8) rotate(180) translate(12.5,0)"
         style="fill-rule:evenodd;stroke:#ff0000;stroke-width:1pt;stroke-opacity:1;fill:#ff0000;fill-opacity:1"
         d="M 0.0,0.0 L 5.0,-5.0 L -12.5,0.0 L 5.0,5.0 L 0.0,0.0 z "
         id="path6798" />
    </marker>
    <marker
       inkscape:stockid="Arrow1Lend"
       orient="auto"
       refY="0.0"
       refX="0.0"
       id="Arrow1Lend"
       style="overflow:visible;"
       inkscape:isstock="true"
       inkscape:collect="always">
      <path
         id="path6295"
         d="M 0.0,0.0 L 5.0,-5.0 L -12.5,0.0 L 5.0,5.0 L 0.0,0.0 z "
         style="fill-rule:evenodd;stroke:#ff0000;stroke-width:1pt;stroke-opacity:1;fill:#ff0000;fill-opacity:1"
         transform="scale(0.8) rotate(180) translate(12.5,0)" />
    </marker>
    <marker
       inkscape:isstock="true"
       style="overflow:visible"
       id="marker6800-0"
       refX="0"
       refY="0"
       orient="auto"
       inkscape:stockid="Arrow1Lend">
      <path
         inkscape:connector-curvature="0"
         transform="matrix(-0.8,0,0,-0.8,-10,0)"
         style="fill:#ff0000;fill-opacity:1;fill-rule:evenodd;stroke:#ff0000;stroke-width:1.00000003pt;stroke-opacity:1"
         d="M 0,0 5,-5 -12.5,0 5,5 Z"
         id="path6798-8" />
    </marker>
    <marker
       inkscape:stockid="Arrow1Lend"
       orient="auto"
       refY="0"
       refX="0"
       id="Arrow1Lend-0"
       style="overflow:visible"
       inkscape:isstock="true"
       inkscape:collect="always">
      <path
         inkscape:connector-curvature="0"
         id="path6295-9"
         d="M 0,0 5,-5 -12.5,0 5,5 Z"
         style="fill:#ff0000;fill-opacity:1;fill-rule:evenodd;stroke:#ff0000;stroke-width:1.00000003pt;stroke-opacity:1"
         transform="matrix(-0.8,0,0,-0.8,-10,0)" />
    </marker>
  </defs>
  <sodipodi:namedview
     id="base"
     pagecolor="#ffffff"
     bordercolor="#666666"
     borderopacity="1.0"
     inkscape:pageopacity="0.0"
     inkscape:pageshadow="2"
     inkscape:zoom="0.55587984"
     inkscape:cx="251.53741"
     inkscape:cy="579.89115"
     inkscape:document-units="mm"
     inkscape:current-layer="layer1"
     showgrid="false"
     inkscape:window-width="1384"
     inkscape:window-height="752"
     inkscape:window-x="90"
     inkscape:window-y="48"
     inkscape:window-maximized="0" />
  <metadata
     id="metadata5">
    <rdf:RDF>
      <cc:Work
         rdf:about="">
        <dc:format>image/svg+xml</dc:format>
        <dc:type
           rdf:resource="http://purl.org/dc/dcmitype/StillImage" />
        <dc:title></dc:title>
      </cc:Work>
    </rdf:RDF>
  </metadata>
  <g
     inkscape:label="Layer 1"
     inkscape:groupmode="layer"
     id="layer1">
    <g
       id="g4740"
       transform="rotate(90,131.0158,232.22162)"
       style="stroke-width:1;stroke-miterlimit:4;stroke-dasharray:none;fill-opacity:1;fill:none">
      <path
         inkscape:connector-curvature="0"
         style="opacity:1;fill:none;fill-opacity:1;fill-rule:evenodd;stroke:#0000ff;stroke-width:1;stroke-linecap:round;stroke-linejoin:round;stroke-miterlimit:4;stroke-dasharray:none;stroke-dashoffset:0;stroke-opacity:1;paint-order:markers stroke fill"
         d="m 48.130676,213.37537 c 0.06667,0.0136 0.133339,0.0271 0.200008,0.0405 0.06667,0.0135 0.133338,0.0269 0.200008,0.0404 0.06667,0.0134 0.133338,0.0268 0.200007,0.0402 0.06667,0.0134 0.133339,0.0267 0.200008,0.04 0.06667,0.0133 0.133339,0.0266 0.200008,0.0398 0.06667,0.0132 0.133338,0.0264 0.200008,0.0396 0.06667,0.0132 0.133338,0.0263 0.200007,0.0394 0.06667,0.0131 0.133339,0.0262 0.200008,0.0393 0.06667,0.0131 0.133339,0.0261 0.200008,0.0391 0.06667,0.013 0.133338,0.026 0.200008,0.0389 0.06667,0.0129 0.133338,0.0259 0.200007,0.0387 0.06667,0.0129 0.133339,0.0257 0.200008,0.0386 0.06667,0.0128 0.133339,0.0256 0.200008,0.0384 0.06667,0.0128 0.133338,0.0255 0.200008,0.0382 0.06667,0.0127 0.133338,0.0254 0.200007,0.038 0.06667,0.0127 0.133339,0.0253 0.200008,0.0379 0.06667,0.0126 0.133339,0.0252 0.200008,0.0377 0.06667,0.0126 0.133338,0.0251 0.200008,0.0376 0.06667,0.0125 0.133338,0.025 0.200007,0.0374 0.06667,0.0124 0.133339,0.0248 0.200008,0.0372 0.06667,0.0124 0.133339,0.0247 0.200008,0.0371 0.06667,0.0123 0.133338,0.0246 0.200008,0.0369 0.06667,0.0123 0.133338,0.0245 0.200007,0.0367 0.06667,0.0122 0.133339,0.0244 0.200008,0.0366 0.06667,0.0122 0.133339,0.0243 0.200008,0.0364 0.06667,0.0121 0.133338,0.0242 0.200008,0.0363 0.06667,0.0121 0.133338,0.0241 0.200007,0.0361 0.06667,0.012 0.133339,0.024 0.200008,0.036 0.06667,0.012 0.133339,0.0239 0.200008,0.0358 0.06667,0.0119 0.133338,0.0238 0.200008,0.0357 0.06667,0.0119 0.133338,0.0237 0.200007,0.0355 0.06667,0.0118 0.133339,0.0236 0.200008,0.0354 0.06667,0.0118 0.133339,0.0235 0.200008,0.0352 0.06667,0.0117 0.133338,0.0234 0.200008,0.0351 0.06667,0.0117 0.133338,0.0233 0.200007,0.0349 0.06667,0.0116 0.133339,0.0232 0.200008,0.0348 0.06667,0.0116 0.133338,0.0231 0.200008,0.0346 0.06667,0.0115 0.133338,0.023 0.200007,0.0345 0.06667,0.0115 0.133339,0.0229 0.200008,0.0344 0.06667,0.0114 0.133339,0.0228 0.200008,0.0342 0.06667,0.0114 0.133338,0.0228 0.200008,0.0341 0.06667,0.0113 0.133338,0.0227 0.200007,0.034 0.06667,0.0113 0.133339,0.0226 0.200008,0.0338 0.06667,0.0112 0.133339,0.0225 0.200008,0.0337 0.06667,0.0112 0.133338,0.0224 0.200008,0.0335 0.06667,0.0112 0.133338,0.0223 0.200007,0.0334 0.06667,0.0111 0.133339,0.0222 0.200008,0.0333 0.06667,0.0111 0.133339,0.0221 0.200008,0.0332 0.06667,0.011 0.133338,0.022 0.200008,0.033 0.06667,0.011 0.133338,0.022 0.200007,0.0329 0.06667,0.0109 0.133339,0.0219 0.200008,0.0328 0.06667,0.0109 0.133339,0.0218 0.200008,0.0326 0.06667,0.0109 0.133338,0.0217 0.200008,0.0325 0.06667,0.0108 0.133338,0.0216 0.200007,0.0324 0.06667,0.0108 0.133339,0.0215 0.200008,0.0323 0.06667,0.0107 0.133339,0.0214 0.200008,0.0321 0.06667,0.0107 0.133338,0.0214 0.200008,0.032 0.06667,0.0106 0.133338,0.0213 0.200007,0.0319 0.06667,0.0106 0.133339,0.0212 0.200008,0.0318 0.06667,0.0106 0.133339,0.0211 0.200008,0.0316 0.06667,0.0105 0.133338,0.021 0.200008,0.0315 0.06667,0.0105 0.133338,0.0209 0.200007,0.0314 0.06667,0.0104 0.133339,0.0209 0.200008,0.0313 0.06667,0.0104 0.133339,0.0208 0.200008,0.0312 0.06667,0.0104 0.133338,0.0207 0.200008,0.031 0.06667,0.0103 0.133338,0.0206 0.200007,0.0309 0.06667,0.0103 0.133339,0.0206 0.200008,0.0308 0.06667,0.0103 0.133339,0.0205 0.200008,0.0307 0.06667,0.0102 0.133338,0.0204 0.200008,0.0306 0.06667,0.0102 0.133338,0.0203 0.200007,0.0305 0.06667,0.0101 0.133339,0.0203 0.200008,0.0304 0.06667,0.0101 0.133339,0.0202 0.200008,0.0302 0.06667,0.0101 0.133338,0.0201 0.200008,0.0302 0.06667,0.01 0.133338,0.02 0.200007,0.03 0.06667,0.01 0.133339,0.02 0.200008,0.0299 0.06667,0.01 0.133338,0.0199 0.200008,0.0298 0.06667,0.01 0.133338,0.0198 0.200007,0.0297 0.06667,0.01 0.133339,0.0198 0.200008,0.0296 0.06667,0.01 0.133339,0.0197 0.200008,0.0295 0.06667,0.01 0.133338,0.0196 0.200008,0.0294 0.06667,0.01 0.133338,0.0195 0.200007,0.0293 0.06667,0.01 0.133339,0.0195 0.200008,0.0292 0.06667,0.01 0.133339,0.0194 0.200008,0.0291 0.06667,0.01 0.133338,0.0193 0.200008,0.029 0.06667,0.01 0.133338,0.0193 0.200007,0.0289 0.06667,0.01 0.133339,0.0192 0.200008,0.0288 0.06667,0.01 0.133339,0.0191 0.200008,0.0287 0.06667,0.01 0.133338,0.0191 0.200008,0.0286 0.06667,0.01 0.133338,0.019 0.200007,0.0285 0.06667,0.009 0.133339,0.0189 0.200008,0.0284 0.06667,0.009 0.133339,0.0189 0.200008,0.0283 0.06667,0.009 0.133338,0.0188 0.200008,0.0282 0.06667,0.009 0.133338,0.0187 0.200007,0.0281 0.06667,0.009 0.133339,0.0187 0.200008,0.028 0.06667,0.009 0.133339,0.0186 0.200008,0.0279 0.06667,0.009 0.133338,0.0185 0.200008,0.0278 0.06667,0.009 0.133338,0.0185 0.200007,0.0277 0.06667,0.009 0.133339,0.0184 0.200008,0.0276 0.06667,0.009 0.133339,0.0183 0.200008,0.0275 0.06667,0.009 0.133338,0.0183 0.200008,0.0274 0.06667,0.009 0.133338,0.0182 0.200007,0.0273 0.06667,0.009 0.133339,0.0182 0.200008,0.0272 0.06667,0.009 0.133339,0.0181 0.200008,0.0271 0.06667,0.009 0.133338,0.018 0.200008,0.027 0.06667,0.009 0.133338,0.018 0.200007,0.0269 0.06667,0.009 0.133339,0.0179 0.200008,0.0269 0.06667,0.009 0.133339,0.0179 0.200008,0.0268 0.06667,0.009 0.133338,0.0178 0.200008,0.0267 0.06667,0.009 0.133338,0.0177 0.200007,0.0266 0.06667,0.009 0.133339,0.0177 0.200008,0.0265 0.06667,0.009 0.133339,0.0176 0.200008,0.0264 0.06667,0.009 0.133338,0.0176 0.200008,0.0263 0.06667,0.009 0.133338,0.0175 0.200007,0.0262 0.06667,0.009 0.133339,0.0174 0.200008,0.0262 0.06667,0.009 0.133338,0.0174 0.200008,0.0261 0.06667,0.009 0.133338,0.0173 0.200007,0.026 0.06667,0.009 0.133339,0.0173 0.200008,0.0259 0.06667,0.009 0.133339,0.0172 0.200008,0.0258 0.06667,0.009 0.133338,0.0172 0.200008,0.0257 0.06667,0.009 0.133338,0.0171 0.200007,0.0256 0.06667,0.009 0.133339,0.0171 0.200008,0.0256 0.06667,0.009 0.133339,0.017 0.200008,0.0255 0.06667,0.008 0.133338,0.017 0.200008,0.0254 0.06667,0.008 0.133338,0.0169 0.200007,0.0253 0.06667,0.008 0.133339,0.0168 0.200008,0.0252 0.06667,0.008 0.133339,0.0168 0.200008,0.0252 0.06667,0.008 0.133338,0.0167 0.200008,0.0251 0.06667,0.008 0.133338,0.0167 0.200007,0.025 0.06667,0.008 0.133339,0.0166 0.200008,0.0249 0.06667,0.008 0.133339,0.0166 0.200008,0.0248 0.06667,0.008 0.133338,0.0165 0.200008,0.0248 0.06667,0.008 0.133338,0.0165 0.200007,0.0247 0.06667,0.008 0.133339,0.0164 0.200008,0.0246 0.06667,0.008 0.133339,0.0164 0.200008,0.0245 0.06667,0.008 0.133338,0.0163 0.200008,0.0245 0.06667,0.008 0.133338,0.0163 0.200007,0.0244 0.06667,0.008 0.133339,0.0162 0.200008,0.0243 0.06667,0.008 0.133339,0.0162 0.200008,0.0242 0.06667,0.008 0.133338,0.0161 0.200008,0.0242 0.06667,0.008 0.133338,0.0161 0.200007,0.0241 0.06667,0.008 0.133339,0.016 0.200008,0.024 0.06667,0.008 0.133339,0.016 0.200008,0.0239 0.06667,0.008 0.133338,0.0159 0.200008,0.0239 0.06667,0.008 0.133338,0.0159 0.200007,0.0238 0.06667,0.008 0.133339,0.0158 0.200008,0.0237 0.06667,0.008 0.133339,0.0158 0.200008,0.0237 0.06667,0.008 0.133338,0.0157 0.200008,0.0236 0.06667,0.008 0.133338,0.0157 0.200007,0.0235 0.06667,0.008 0.133339,0.0156 0.200008,0.0234 0.06667,0.008 0.133339,0.0156 0.200008,0.0234 0.06667,0.008 0.133338,0.0155 0.200007,0.0233 0.06667,0.008 0.133339,0.0155 0.200008,0.0232 0.06667,0.008 0.133339,0.0155 0.200008,0.0232 0.06667,0.008 0.133338,0.0154 0.200008,0.0231 0.06667,0.008 0.133338,0.0154 0.200007,0.023 0.06667,0.008 0.133339,0.0153 0.200008,0.023 0.06667,0.008 0.133339,0.0153 0.200008,0.0229 0.06667,0.008 0.133338,0.0152 0.200008,0.0228 0.06667,0.008 0.133338,0.0152 0.200007,0.0228 0.06667,0.008 0.133339,0.0151 0.200008,0.0227 0.06667,0.008 0.133339,0.0151 0.200008,0.0226 0.06667,0.008 0.133338,0.0151 0.200008,0.0226 0.06667,0.007 0.133338,0.015 0.200007,0.0225 0.06667,0.007 0.133339,0.015 0.200008,0.0224 0.06667,0.007 0.133339,0.0149 0.200008,0.0224 0.06667,0.007 0.133338,0.0149 0.200008,0.0223 0.06667,0.007 0.133338,0.0148 0.200007,0.0222 0.06667,0.007 0.133339,0.0148 0.200008,0.0222 0.06667,0.007 0.133339,0.0147 0.200008,0.0221 0.06667,0.007 0.133338,0.0147 0.200008,0.022 0.06667,0.007 0.133338,0.0147 0.200007,0.022 0.06667,0.007 0.133339,0.0146 0.200008,0.0219 0.06667,0.007 0.133339,0.0146 0.200008,0.0219 0.06667,0.007 0.133338,0.0145 0.200008,0.0218 0.06667,0.007 0.133338,0.0145 0.200007,0.0217 0.06667,0.007 0.133339,0.0145 0.200008,0.0217 0.06667,0.007 0.133339,0.0144 0.200008,0.0216 0.06667,0.007 0.133338,0.0144 0.200008,0.0215 0.06667,0.007 0.133338,0.0143 0.200007,0.0215 0.06667,0.007 0.133339,0.0143 0.200008,0.0214 0.06667,0.007 0.133339,0.0143 0.200008,0.0214 0.06667,0.007 0.133338,0.0142 0.200008,0.0213 0.06667,0.007 0.133338,0.0142 0.200007,0.0212 0.06667,0.007 0.133339,0.0141 0.200008,0.0212 0.06667,0.007 0.133339,0.0141 0.200008,0.0211 0.06667,0.007 0.133338,0.0141 0.200008,0.0211 0.06667,0.007 0.133338,0.014 0.200007,0.021 0.06667,0.007 0.133339,0.014 0.200008,0.021 0.06667,0.007 0.133339,0.0139 0.200008,0.0209 0.06667,0.007 0.133338,0.0139 0.200007,0.0208 0.06667,0.007 0.133339,0.0139 0.200008,0.0208 0.06667,0.007 0.133339,0.0138 0.200008,0.0207 0.06667,0.007 0.133338,0.0138 0.200008,0.0207 0.06667,0.007 0.133338,0.0138 0.200007,0.0206 0.06667,0.007 0.133339,0.0137 0.200008,0.0206 0.06667,0.007 0.133339,0.0137 0.200008,0.0205 0.06667,0.007 0.133338,0.0136 0.200008,0.0205 0.06667,0.007 0.133338,0.0136 0.200007,0.0204 0.06667,0.007 0.133339,0.0136 0.200008,0.0203 0.06667,0.007 0.133339,0.0135 0.200008,0.0203 0.06667,0.007 0.133338,0.0135 0.200008,0.0202 0.06667,0.007 0.133338,0.0135 0.200007,0.0202 0.06667,0.007 0.133339,0.0134 0.200008,0.0201 0.06667,0.007 0.133339,0.0134 0.200008,0.0201 0.06667,0.007 0.133338,0.0134 0.200008,0.02 0.06667,0.007 0.133338,0.0133 0.200007,0.02 0.06667,0.007 0.133339,0.0133 0.200008,0.0199 0.06667,0.007 0.133339,0.0133 0.200008,0.0199 0.06667,0.007 0.133338,0.0132 0.200008,0.0198 0.06667,0.007 0.133338,0.0132 0.200007,0.0198 0.06667,0.007 0.133339,0.0131 0.200008,0.0197 0.06667,0.007 0.133339,0.0131 0.200008,0.0197 0.06667,0.007 0.133338,0.0131 0.200008,0.0196 0.06667,0.007 0.133338,0.013 0.200007,0.0196 0.06667,0.007 0.133339,0.013 0.200008,0.0195 0.06667,0.006 0.133339,0.013 0.200008,0.0195 0.06667,0.006 0.133338,0.0129 0.200008,0.0194 0.06667,0.006 0.133338,0.0129 0.200007,0.0194 0.06667,0.006 0.133339,0.0129 0.200008,0.0193 0.06667,0.006 0.133339,0.0128 0.200008,0.0193 0.06667,0.006 0.133338,0.0128 0.200008,0.0192 0.06667,0.006 0.133338,0.0128 0.200007,0.0192 0.06667,0.006 0.133339,0.0128 0.200008,0.0191 0.06667,0.006 0.133339,0.0127 0.200008,0.0191 0.06667,0.006 0.133338,0.0127 0.200008,0.019 0.06667,0.006 0.133338,0.0127 0.200007,0.019 0.06667,0.006 0.133339,0.0126 0.200008,0.0189 0.06667,0.006 0.133338,0.0126 0.200008,0.0189 0.06667,0.006 0.133338,0.0126 0.200007,0.0188 0.06667,0.006 0.133339,0.0125 0.200008,0.0188 0.06667,0.006 0.133339,0.0125 0.200008,0.0187 0.06667,0.006 0.133338,0.0125 0.200008,0.0187 0.06667,0.006 0.133338,0.0124 0.200007,0.0186 0.06667,0.006 0.133339,0.0124 0.200008,0.0186 0.06667,0.006 0.133339,0.0124 0.200008,0.0186 0.06667,0.006 0.133338,0.0123 0.200008,0.0185 0.06667,0.006 0.133338,0.0123 0.200007,0.0185 0.06667,0.006 0.133339,0.0123 0.200008,0.0184 0.06667,0.006 0.133339,0.0123 0.200008,0.0184 0.06667,0.006 0.133338,0.0122 0.200008,0.0183 0.06667,0.006 0.133338,0.0122 0.200007,0.0183 0.06667,0.006 0.133339,0.0122 0.200008,0.0182 0.06667,0.006 0.133339,0.0121 0.200008,0.0182 0.06667,0.006 0.133338,0.0121 0.200008,0.0181 0.06667,0.006 0.133338,0.0121 0.200007,0.0181 0.06667,0.006 0.133339,0.0121 0.200008,0.0181 0.06667,0.006 0.133339,0.012 0.200008,0.018 0.06667,0.006 0.133338,0.012 0.200008,0.018 0.06667,0.006 0.133338,0.0119 0.200007,0.0179 0.06667,0.006 0.133339,0.0119 0.200008,0.0179 0.06667,0.006 0.133339,0.0119 0.200008,0.0178 0.06667,0.006 0.133338,0.0119 0.200008,0.0178 0.06667,0.006 0.133338,0.0118 0.200007,0.0178 0.06667,0.006 0.133339,0.0118 0.200008,0.0177 0.06667,0.006 0.133339,0.0118 0.200008,0.0177 0.06667,0.006 0.133338,0.0118 0.200008,0.0176 0.06667,0.006 0.133338,0.0117 0.200007,0.0176 0.06667,0.006 0.133339,0.0117 0.200008,0.0175 0.06667,0.006 0.133339,0.0117 0.200008,0.0175 0.06667,0.006 0.133338,0.0117 0.200008,0.0175 0.0667,0.006 0.13334,0.0116 0.20001,0.0174 0.0667,0.006 0.13334,0.0116 0.20001,0.0174 0.0667,0.006 0.13333,0.0116 0.2,0.0173 0.0667,0.006 0.13334,0.0115 0.20001,0.0173 0.0667,0.006 0.13334,0.0115 0.20001,0.0172 0.0667,0.006 0.13334,0.0115 0.20001,0.0172 0.0667,0.006 0.13333,0.0114 0.2,0.0172 0.0667,0.006 0.13334,0.0114 0.20001,0.0171 0.0667,0.006 0.13334,0.0114 0.20001,0.0171 0.0667,0.006 0.13334,0.0114 0.20001,0.017 0.0667,0.006 0.13334,0.0114 0.2,0.017 0.0667,0.006 0.13334,0.0113 0.20001,0.017 0.0667,0.006 0.13334,0.0113 0.20001,0.0169 0.0667,0.006 0.13334,0.0113 0.20001,0.0169 0.0667,0.006 0.13334,0.0112 0.20001,0.0169 0.0667,0.006 0.13333,0.0112 0.2,0.0168 0.0667,0.006 0.13334,0.0112 0.20001,0.0168 0.0667,0.006 0.13334,0.0112 0.20001,0.0167 0.0667,0.006 0.13334,0.0111 0.20001,0.0167 0.0667,0.006 0.13334,0.0111 0.2,0.0167 0.0667,0.006 0.13334,0.0111 0.20001,0.0166 0.0667,0.006 0.13334,0.0111 0.20001,0.0166 0.0667,0.006 0.13334,0.011 0.20001,0.0165 0.0667,0.006 0.13334,0.011 0.20001,0.0165 0.0667,0.006 0.13333,0.011 0.2,0.0165 0.0667,0.005 0.13334,0.011 0.20001,0.0164 0.0667,0.005 0.13334,0.0109 0.20001,0.0164 0.0667,0.005 0.13334,0.0109 0.20001,0.0164 0.0667,0.005 0.13333,0.0109 0.2,0.0163 0.0667,0.005 0.13334,0.0109 0.20001,0.0163 0.0667,0.005 0.13334,0.0108 0.20001,0.0163 0.0667,0.005 0.13334,0.0108 0.20001,0.0162 0.0667,0.005 0.13334,0.0108 0.20001,0.0162 0.0667,0.005 0.13333,0.0108 0.2,0.0161 0.0667,0.005 0.13334,0.0108 0.20001,0.0161 0.0667,0.005 0.13334,0.0107 0.20001,0.0161 0.0667,0.005 0.13334,0.0107 0.20001,0.016 0.0667,0.005 0.13333,0.0107 0.2,0.016 0.0667,0.005 0.13334,0.0106 0.20001,0.016 0.0667,0.005 0.13334,0.0106 0.20001,0.0159 0.0667,0.005 0.13334,0.0106 0.20001,0.0159 0.0667,0.005 0.13334,0.0106 0.2,0.0159 0.0667,0.005 0.13334,0.0106 0.20001,0.0158 0.0667,0.005 0.13334,0.0105 0.20001,0.0158 0.0667,0.005 0.13334,0.0105 0.20001,0.0158 0.0667,0.005 0.13334,0.0105 0.20001,0.0157 0.0667,0.005 0.13333,0.0105 0.2,0.0157 0.0667,0.005 0.13334,0.0104 0.20001,0.0157 0.0667,0.005 0.13334,0.0104 0.20001,0.0156 0.0667,0.005 0.13334,0.0104 0.20001,0.0156 0.0667,0.005 0.13334,0.0104 0.2,0.0155 0.0667,0.005 0.13334,0.0104 0.20001,0.0155 0.0667,0.005 0.13334,0.0103 0.20001,0.0155 0.0667,0.005 0.13334,0.0103 0.20001,0.0155 0.0667,0.005 0.13334,0.0103 0.20001,0.0154 0.0667,0.005 0.13333,0.0103 0.2,0.0154 0.0667,0.005 0.13334,0.0102 0.20001,0.0154 0.0667,0.005 0.13334,0.0102 0.20001,0.0153 0.0667,0.005 0.13334,0.0102 0.20001,0.0153 0.0667,0.005 0.13333,0.0102 0.2,0.0153 0.0667,0.005 0.13334,0.0102 0.20001,0.0152 0.0667,0.005 0.13334,0.0101 0.20001,0.0152 0.0667,0.005 0.13334,0.0101 0.20001,0.0152 0.0667,0.005 0.13334,0.0101 0.20001,0.0151 0.0667,0.005 0.13333,0.0101 0.2,0.0151 0.0667,0.005 0.13334,0.0101 0.20001,0.0151 0.0667,0.005 0.13334,0.01 0.20001,0.015 0.0667,0.005 0.13334,0.01 0.20001,0.015 0.0667,0.005 0.13333,0.01 0.2,0.015 0.0667,0.005 0.13334,0.01 0.20001,0.0149 0.0667,0.005 0.13334,0.01 0.20001,0.0149 0.0667,0.005 0.13334,0.01 0.20001,0.0149 0.0667,0.005 0.13334,0.01 0.2,0.0148 0.0667,0.005 0.13334,0.01 0.20001,0.0148 0.0667,0.005 0.13334,0.01 0.20001,0.0148 0.0667,0.005 0.13334,0.01 0.20001,0.0148 0.0667,0.005 0.13334,0.01 0.20001,0.0147 0.0667,0.005 0.13333,0.01 0.2,0.0147 0.0667,0.005 0.13334,0.01 0.20001,0.0147 0.0667,0.005 0.13334,0.01 0.20001,0.0146 0.0667,0.005 0.13334,0.01 0.20001,0.0146 0.0667,0.005 0.13334,0.01 0.2,0.0146 0.0667,0.005 0.13334,0.01 0.20001,0.0145 0.0667,0.005 0.13334,0.01 0.20001,0.0145 0.0667,0.005 0.13334,0.01 0.20001,0.0145 0.0667,0.005 0.13334,0.01 0.20001,0.0145 0.0667,0.005 0.13333,0.01 0.2,0.0144 0.0667,0.005 0.13334,0.01 0.20001,0.0144 0.0667,0.005 0.13334,0.01 0.20001,0.0144 0.0667,0.005 0.13334,0.01 0.20001,0.0143 0.0667,0.005 0.13333,0.01 0.2,0.0143 0.0667,0.005 0.13334,0.01 0.20001,0.0143 0.0667,0.005 0.13334,0.01 0.20001,0.0143 0.0667,0.005 0.13334,0.009 0.20001,0.0142 0.0667,0.005 0.13334,0.009 0.20001,0.0142 0.0667,0.005 0.13333,0.009 0.2,0.0142 0.0667,0.005 0.13334,0.009 0.20001,0.0141 0.0667,0.005 0.13334,0.009 0.20001,0.0141 0.0667,0.005 0.13334,0.009 0.20001,0.0141 0.0667,0.005 0.13333,0.009 0.2,0.0141 0.0667,0.005 0.13334,0.009 0.20001,0.014 0.0667,0.005 0.13334,0.009 0.20001,0.014 0.0667,0.005 0.13334,0.009 0.20001,0.014 0.0667,0.005 0.13334,0.009 0.2,0.0139 0.0667,0.005 0.13334,0.009 0.20001,0.0139 0.0667,0.005 0.13334,0.009 0.20001,0.0139 0.0667,0.005 0.13334,0.009 0.20001,0.0139 0.0667,0.005 0.13334,0.009 0.20001,0.0138 0.0667,0.005 0.13333,0.009 0.2,0.0138 0.0667,0.005 0.13334,0.009 0.20001,0.0138 0.0667,0.005 0.13334,0.009 0.20001,0.0138 0.0667,0.005 0.13334,0.009 0.20001,0.0137 0.0667,0.005 0.13334,0.009 0.2,0.0137 0.0667,0.005 0.13334,0.009 0.20001,0.0137 0.0667,0.005 0.13334,0.009 0.20001,0.0136 0.0667,0.005 0.13334,0.009 0.20001,0.0136 0.0667,0.005 0.13334,0.009 0.20001,0.0136 0.0667,0.005 0.13333,0.009 0.2,0.0136 0.0667,0.005 0.13334,0.009 0.20001,0.0135 0.0667,0.005 0.13334,0.009 0.20001,0.0135 0.0667,0.004 0.13334,0.009 0.20001,0.0135 0.0667,0.005 0.13333,0.009 0.2,0.0135 0.0667,0.004 0.13334,0.009 0.20001,0.0134 0.0667,0.004 0.13334,0.009 0.20001,0.0134 0.0667,0.004 0.13334,0.009 0.20001,0.0134 0.0667,0.004 0.13334,0.009 0.20001,0.0134 0.0667,0.004 0.13333,0.009 0.2,0.0133 0.0667,0.004 0.13334,0.009 0.20001,0.0133 0.0667,0.004 0.13334,0.009 0.20001,0.0133 0.0667,0.004 0.13334,0.009 0.20001,0.0133 0.0667,0.004 0.13333,0.009 0.2,0.0132 0.0667,0.004 0.13334,0.009 0.20001,0.0132 0.0667,0.004 0.13334,0.009 0.20001,0.0132 0.0667,0.004 0.13334,0.009 0.20001,0.0132 0.0667,0.004 0.13334,0.009 0.2,0.0131 0.0667,0.004 0.13334,0.009 0.20001,0.0131 0.0667,0.004 0.13334,0.009 0.20001,0.0131 0.0667,0.004 0.13334,0.009 0.20001,0.0131 0.0667,0.004 0.13334,0.009 0.20001,0.013 0.0667,0.004 0.13333,0.009 0.2,0.013 0.0667,0.004 0.13334,0.009 0.20001,0.013 0.0667,0.004 0.13334,0.009 0.20001,0.013 0.0667,0.004 0.13334,0.009 0.20001,0.0129 0.0667,0.004 0.13334,0.009 0.2,0.0129 0.0667,0.004 0.13334,0.009 0.20001,0.0129 0.0667,0.004 0.13334,0.009 0.20001,0.0129 0.0667,0.004 0.13334,0.009 0.20001,0.0128 0.0667,0.004 0.13334,0.009 0.20001,0.0128 0.0667,0.004 0.13333,0.009 0.2,0.0128 0.0667,0.004 0.13334,0.009 0.20001,0.0128 0.0667,0.004 0.13334,0.008 0.20001,0.0127 0.0667,0.004 0.13334,0.008 0.20001,0.0127 0.0667,0.004 0.13334,0.008 0.2,0.0127 0.0667,0.004 0.13334,0.008 0.20001,0.0127 0.0667,0.004 0.13334,0.008 0.20001,0.0127 0.0667,0.004 0.13334,0.008 0.20001,0.0126 0.0667,0.004 0.13334,0.008 0.20001,0.0126 0.0667,0.004 0.13333,0.008 0.2,0.0126 0.0667,0.004 0.13334,0.008 0.20001,0.0126 0.0667,0.004 0.13334,0.008 0.20001,0.0125 0.0667,0.004 0.13334,0.008 0.20001,0.0125 0.0667,0.004 0.13333,0.008 0.2,0.0125 0.0667,0.004 0.13334,0.008 0.20001,0.0125 0.0667,0.004 0.13334,0.008 0.20001,0.0125 0.0667,0.004 0.13334,0.008 0.20001,0.0124 0.0667,0.004 0.13334,0.008 0.2,0.0124 0.0667,0.004 0.13334,0.008 0.20001,0.0124 0.0667,0.004 0.13334,0.008 0.20001,0.0124 0.0667,0.004 0.13334,0.008 0.20001,0.0123 0.0667,0.004 0.13334,0.008 0.20001,0.0123 0.0667,0.004 0.13333,0.008 0.2,0.0123 0.0667,0.004 0.13334,0.008 0.20001,0.0123 0.0667,0.004 0.13334,0.008 0.20001,0.0122 0.0667,0.004 0.13334,0.008 0.20001,0.0122 0.0667,0.004 0.13334,0.008 0.2,0.0122 0.0667,0.004 0.13334,0.008 0.20001,0.0122 0.0667,0.004 0.13334,0.008 0.20001,0.0122 0.0667,0.004 0.13334,0.008 0.20001,0.0121 0.0667,0.004 0.13334,0.008 0.20001,0.0121 0.0667,0.004 0.13333,0.008 0.2,0.0121 0.0667,0.004 0.13334,0.008 0.20001,0.0121 0.0667,0.004 0.13334,0.008 0.20001,0.0121 0.0667,0.004 0.13334,0.008 0.20001,0.012 0.0667,0.004 0.13334,0.008 0.2,0.012 0.0667,0.004 0.13334,0.008 0.20001,0.012 0.0667,0.004 0.13334,0.008 0.20001,0.012 0.0667,0.004 0.13334,0.008 0.20001,0.0119 0.0667,0.004 0.13334,0.008 0.20001,0.0119 0.0667,0.004 0.13333,0.008 0.2,0.0119 0.0667,0.004 0.13334,0.008 0.20001,0.0119 0.0667,0.004 0.13334,0.008 0.20001,0.0119 0.0667,0.004 0.13334,0.008 0.20001,0.0118 0.0667,0.004 0.13333,0.008 0.2,0.0118 0.0667,0.004 0.13334,0.008 0.20001,0.0118 0.0667,0.004 0.13334,0.008 0.20001,0.0118 0.0667,0.004 0.13334,0.008 0.20001,0.0118 0.0667,0.004 0.13334,0.008 0.20001,0.0117 0.0667,0.004 0.13333,0.008 0.2,0.0117 0.0667,0.004 0.13334,0.008 0.20001,0.0117 0.0667,0.004 0.13334,0.008 0.20001,0.0117 0.0667,0.004 0.13334,0.008 0.20001,0.0117 0.0667,0.004 0.13333,0.008 0.2,0.0116 0.0667,0.004 0.13334,0.008 0.20001,0.0116 0.0667,0.004 0.13334,0.008 0.20001,0.0116 0.0667,0.004 0.13334,0.008 0.20001,0.0116 0.0667,0.004 0.13334,0.008 0.2,0.0116 0.0667,0.004 0.13334,0.008 0.20001,0.0115 0.0667,0.004 0.13334,0.008 0.20001,0.0115 0.0667,0.004 0.13334,0.008 0.20001,0.0115 0.0667,0.004 0.13334,0.008 0.20001,0.0115 0.0667,0.004 0.13333,0.008 0.2,0.0115 0.0667,0.004 0.13334,0.008 0.20001,0.0115 0.0667,0.004 0.13334,0.008 0.20001,0.0114 0.0667,0.004 0.13334,0.008 0.20001,0.0114 0.0667,0.004 0.13334,0.008 0.2,0.0114 0.0667,0.004 0.13334,0.008 0.20001,0.0114 0.0667,0.004 0.13334,0.008 0.20001,0.0114 0.0667,0.004 0.13334,0.008 0.20001,0.0113 0.0667,0.004 0.13334,0.008 0.20001,0.0113 0.0667,0.004 0.13333,0.008 0.2,0.0113 0.0667,0.004 0.13334,0.008 0.20001,0.0113 0.0667,0.004 0.13334,0.008 0.20001,0.0113 0.0667,0.004 0.13334,0.007 0.20001,0.0112 0.0667,0.004 0.13333,0.007 0.2,0.0112 0.0667,0.004 0.13334,0.007 0.20001,0.0112 0.0667,0.004 0.13334,0.007 0.20001,0.0112 0.0667,0.004 0.13334,0.007 0.20001,0.0112 0.0667,0.004 0.13334,0.007 0.20001,0.0111 0.0667,0.004 0.13333,0.007 0.2,0.0111 0.0667,0.004 0.13334,0.007 0.20001,0.0111 0.0667,0.004 0.13334,0.007 0.20001,0.0111 0.0667,0.004 0.13334,0.007 0.20001,0.0111 0.0667,0.004 0.13333,0.007 0.2,0.0111 0.0667,0.004 0.13334,0.007 0.20001,0.011 0.0667,0.004 0.13334,0.007 0.20001,0.011 0.0667,0.004 0.13334,0.007 0.20001,0.011 0.0667,0.004 0.13334,0.007 0.2,0.011 0.0667,0.004 0.13334,0.007 0.20001,0.011 0.0667,0.004 0.13334,0.007 0.20001,0.011"
         title="0.175/pow(1.0+0.018575*x,0.25)"
         id="path4731" />
      <path
         id="path4736"
         title="0.175/pow(1.0+0.018575*x,0.25)"
         d="m 48.130676,248.37537 c 0.06667,-0.0136 0.133339,-0.0271 0.200008,-0.0405 0.06667,-0.0135 0.133338,-0.0269 0.200008,-0.0404 0.06667,-0.0134 0.133338,-0.0268 0.200007,-0.0402 0.06667,-0.0134 0.133339,-0.0267 0.200008,-0.04 0.06667,-0.0133 0.133339,-0.0266 0.200008,-0.0398 0.06667,-0.0132 0.133338,-0.0264 0.200008,-0.0396 0.06667,-0.0132 0.133338,-0.0263 0.200007,-0.0394 0.06667,-0.0131 0.133339,-0.0262 0.200008,-0.0393 0.06667,-0.0131 0.133339,-0.0261 0.200008,-0.0391 0.06667,-0.013 0.133338,-0.026 0.200008,-0.0389 0.06667,-0.0129 0.133338,-0.0259 0.200007,-0.0387 0.06667,-0.0129 0.133339,-0.0257 0.200008,-0.0386 0.06667,-0.0128 0.133339,-0.0256 0.200008,-0.0384 0.06667,-0.0128 0.133338,-0.0255 0.200008,-0.0382 0.06667,-0.0127 0.133338,-0.0254 0.200007,-0.038 0.06667,-0.0127 0.133339,-0.0253 0.200008,-0.0379 0.06667,-0.0126 0.133339,-0.0252 0.200008,-0.0377 0.06667,-0.0126 0.133338,-0.0251 0.200008,-0.0376 0.06667,-0.0125 0.133338,-0.025 0.200007,-0.0374 0.06667,-0.0124 0.133339,-0.0248 0.200008,-0.0372 0.06667,-0.0124 0.133339,-0.0247 0.200008,-0.0371 0.06667,-0.0123 0.133338,-0.0246 0.200008,-0.0369 0.06667,-0.0123 0.133338,-0.0245 0.200007,-0.0367 0.06667,-0.0122 0.133339,-0.0244 0.200008,-0.0366 0.06667,-0.0122 0.133339,-0.0243 0.200008,-0.0364 0.06667,-0.0121 0.133338,-0.0242 0.200008,-0.0363 0.06667,-0.0121 0.133338,-0.0241 0.200007,-0.0361 0.06667,-0.012 0.133339,-0.024 0.200008,-0.036 0.06667,-0.012 0.133339,-0.0239 0.200008,-0.0358 0.06667,-0.0119 0.133338,-0.0238 0.200008,-0.0357 0.06667,-0.0119 0.133338,-0.0237 0.200007,-0.0355 0.06667,-0.0118 0.133339,-0.0236 0.200008,-0.0354 0.06667,-0.0118 0.133339,-0.0235 0.200008,-0.0352 0.06667,-0.0117 0.133338,-0.0234 0.200008,-0.0351 0.06667,-0.0117 0.133338,-0.0233 0.200007,-0.0349 0.06667,-0.0116 0.133339,-0.0232 0.200008,-0.0348 0.06667,-0.0116 0.133338,-0.0231 0.200008,-0.0346 0.06667,-0.0115 0.133338,-0.023 0.200007,-0.0345 0.06667,-0.0115 0.133339,-0.0229 0.200008,-0.0344 0.06667,-0.0114 0.133339,-0.0228 0.200008,-0.0342 0.06667,-0.0114 0.133338,-0.0228 0.200008,-0.0341 0.06667,-0.0113 0.133338,-0.0227 0.200007,-0.034 0.06667,-0.0113 0.133339,-0.0226 0.200008,-0.0338 0.06667,-0.0112 0.133339,-0.0225 0.200008,-0.0337 0.06667,-0.0112 0.133338,-0.0224 0.200008,-0.0335 0.06667,-0.0112 0.133338,-0.0223 0.200007,-0.0334 0.06667,-0.0111 0.133339,-0.0222 0.200008,-0.0333 0.06667,-0.0111 0.133339,-0.0221 0.200008,-0.0332 0.06667,-0.011 0.133338,-0.022 0.200008,-0.033 0.06667,-0.011 0.133338,-0.022 0.200007,-0.0329 0.06667,-0.0109 0.133339,-0.0219 0.200008,-0.0328 0.06667,-0.0109 0.133339,-0.0218 0.200008,-0.0326 0.06667,-0.0109 0.133338,-0.0217 0.200008,-0.0325 0.06667,-0.0108 0.133338,-0.0216 0.200007,-0.0324 0.06667,-0.0108 0.133339,-0.0215 0.200008,-0.0323 0.06667,-0.0107 0.133339,-0.0214 0.200008,-0.0321 0.06667,-0.0107 0.133338,-0.0214 0.200008,-0.032 0.06667,-0.0106 0.133338,-0.0213 0.200007,-0.0319 0.06667,-0.0106 0.133339,-0.0212 0.200008,-0.0318 0.06667,-0.0106 0.133339,-0.0211 0.200008,-0.0316 0.06667,-0.0105 0.133338,-0.021 0.200008,-0.0315 0.06667,-0.0105 0.133338,-0.0209 0.200007,-0.0314 0.06667,-0.0104 0.133339,-0.0209 0.200008,-0.0313 0.06667,-0.0104 0.133339,-0.0208 0.200008,-0.0312 0.06667,-0.0104 0.133338,-0.0207 0.200008,-0.031 0.06667,-0.0103 0.133338,-0.0206 0.200007,-0.0309 0.06667,-0.0103 0.133339,-0.0206 0.200008,-0.0308 0.06667,-0.0103 0.133339,-0.0205 0.200008,-0.0307 0.06667,-0.0102 0.133338,-0.0204 0.200008,-0.0306 0.06667,-0.0102 0.133338,-0.0203 0.200007,-0.0305 0.06667,-0.0101 0.133339,-0.0203 0.200008,-0.0304 0.06667,-0.0101 0.133339,-0.0202 0.200008,-0.0302 0.06667,-0.0101 0.133338,-0.0201 0.200008,-0.0302 0.06667,-0.01 0.133338,-0.02 0.200007,-0.03 0.06667,-0.01 0.133339,-0.02 0.200008,-0.0299 0.06667,-0.01 0.133338,-0.0199 0.200008,-0.0298 0.06667,-0.01 0.133338,-0.0198 0.200007,-0.0297 0.06667,-0.01 0.133339,-0.0198 0.200008,-0.0296 0.06667,-0.01 0.133339,-0.0197 0.200008,-0.0295 0.06667,-0.01 0.133338,-0.0196 0.200008,-0.0294 0.06667,-0.01 0.133338,-0.0195 0.200007,-0.0293 0.06667,-0.01 0.133339,-0.0195 0.200008,-0.0292 0.06667,-0.01 0.133339,-0.0194 0.200008,-0.0291 0.06667,-0.01 0.133338,-0.0193 0.200008,-0.029 0.06667,-0.01 0.133338,-0.0193 0.200007,-0.0289 0.06667,-0.01 0.133339,-0.0192 0.200008,-0.0288 0.06667,-0.01 0.133339,-0.0191 0.200008,-0.0287 0.06667,-0.01 0.133338,-0.0191 0.200008,-0.0286 0.06667,-0.01 0.133338,-0.019 0.200007,-0.0285 0.06667,-0.009 0.133339,-0.0189 0.200008,-0.0284 0.06667,-0.009 0.133339,-0.0189 0.200008,-0.0283 0.06667,-0.009 0.133338,-0.0188 0.200008,-0.0282 0.06667,-0.009 0.133338,-0.0187 0.200007,-0.0281 0.06667,-0.009 0.133339,-0.0187 0.200008,-0.028 0.06667,-0.009 0.133339,-0.0186 0.200008,-0.0279 0.06667,-0.009 0.133338,-0.0185 0.200008,-0.0278 0.06667,-0.009 0.133338,-0.0185 0.200007,-0.0277 0.06667,-0.009 0.133339,-0.0184 0.200008,-0.0276 0.06667,-0.009 0.133339,-0.0183 0.200008,-0.0275 0.06667,-0.009 0.133338,-0.0183 0.200008,-0.0274 0.06667,-0.009 0.133338,-0.0182 0.200007,-0.0273 0.06667,-0.009 0.133339,-0.0182 0.200008,-0.0272 0.06667,-0.009 0.133339,-0.0181 0.200008,-0.0271 0.06667,-0.009 0.133338,-0.018 0.200008,-0.027 0.06667,-0.009 0.133338,-0.018 0.200007,-0.0269 0.06667,-0.009 0.133339,-0.0179 0.200008,-0.0269 0.06667,-0.009 0.133339,-0.0179 0.200008,-0.0268 0.06667,-0.009 0.133338,-0.0178 0.200008,-0.0267 0.06667,-0.009 0.133338,-0.0177 0.200007,-0.0266 0.06667,-0.009 0.133339,-0.0177 0.200008,-0.0265 0.06667,-0.009 0.133339,-0.0176 0.200008,-0.0264 0.06667,-0.009 0.133338,-0.0176 0.200008,-0.0263 0.06667,-0.009 0.133338,-0.0175 0.200007,-0.0262 0.06667,-0.009 0.133339,-0.0174 0.200008,-0.0262 0.06667,-0.009 0.133338,-0.0174 0.200008,-0.0261 0.06667,-0.009 0.133338,-0.0173 0.200007,-0.026 0.06667,-0.009 0.133339,-0.0173 0.200008,-0.0259 0.06667,-0.009 0.133339,-0.0172 0.200008,-0.0258 0.06667,-0.009 0.133338,-0.0172 0.200008,-0.0257 0.06667,-0.009 0.133338,-0.0171 0.200007,-0.0256 0.06667,-0.009 0.133339,-0.0171 0.200008,-0.0256 0.06667,-0.009 0.133339,-0.017 0.200008,-0.0255 0.06667,-0.008 0.133338,-0.017 0.200008,-0.0254 0.06667,-0.008 0.133338,-0.0169 0.200007,-0.0253 0.06667,-0.008 0.133339,-0.0168 0.200008,-0.0252 0.06667,-0.008 0.133339,-0.0168 0.200008,-0.0252 0.06667,-0.008 0.133338,-0.0167 0.200008,-0.0251 0.06667,-0.008 0.133338,-0.0167 0.200007,-0.025 0.06667,-0.008 0.133339,-0.0166 0.200008,-0.0249 0.06667,-0.008 0.133339,-0.0166 0.200008,-0.0248 0.06667,-0.008 0.133338,-0.0165 0.200008,-0.0248 0.06667,-0.008 0.133338,-0.0165 0.200007,-0.0247 0.06667,-0.008 0.133339,-0.0164 0.200008,-0.0246 0.06667,-0.008 0.133339,-0.0164 0.200008,-0.0245 0.06667,-0.008 0.133338,-0.0163 0.200008,-0.0245 0.06667,-0.008 0.133338,-0.0163 0.200007,-0.0244 0.06667,-0.008 0.133339,-0.0162 0.200008,-0.0243 0.06667,-0.008 0.133339,-0.0162 0.200008,-0.0242 0.06667,-0.008 0.133338,-0.0161 0.200008,-0.0242 0.06667,-0.008 0.133338,-0.0161 0.200007,-0.0241 0.06667,-0.008 0.133339,-0.016 0.200008,-0.024 0.06667,-0.008 0.133339,-0.016 0.200008,-0.0239 0.06667,-0.008 0.133338,-0.0159 0.200008,-0.0239 0.06667,-0.008 0.133338,-0.0159 0.200007,-0.0238 0.06667,-0.008 0.133339,-0.0158 0.200008,-0.0237 0.06667,-0.008 0.133339,-0.0158 0.200008,-0.0237 0.06667,-0.008 0.133338,-0.0157 0.200008,-0.0236 0.06667,-0.008 0.133338,-0.0157 0.200007,-0.0235 0.06667,-0.008 0.133339,-0.0156 0.200008,-0.0234 0.06667,-0.008 0.133339,-0.0156 0.200008,-0.0234 0.06667,-0.008 0.133338,-0.0155 0.200007,-0.0233 0.06667,-0.008 0.133339,-0.0155 0.200008,-0.0232 0.06667,-0.008 0.133339,-0.0155 0.200008,-0.0232 0.06667,-0.008 0.133338,-0.0154 0.200008,-0.0231 0.06667,-0.008 0.133338,-0.0154 0.200007,-0.023 0.06667,-0.008 0.133339,-0.0153 0.200008,-0.023 0.06667,-0.008 0.133339,-0.0153 0.200008,-0.0229 0.06667,-0.008 0.133338,-0.0152 0.200008,-0.0228 0.06667,-0.008 0.133338,-0.0152 0.200007,-0.0228 0.06667,-0.008 0.133339,-0.0151 0.200008,-0.0227 0.06667,-0.008 0.133339,-0.0151 0.200008,-0.0226 0.06667,-0.008 0.133338,-0.0151 0.200008,-0.0226 0.06667,-0.007 0.133338,-0.015 0.200007,-0.0225 0.06667,-0.007 0.133339,-0.015 0.200008,-0.0224 0.06667,-0.007 0.133339,-0.0149 0.200008,-0.0224 0.06667,-0.007 0.133338,-0.0149 0.200008,-0.0223 0.06667,-0.007 0.133338,-0.0148 0.200007,-0.0222 0.06667,-0.007 0.133339,-0.0148 0.200008,-0.0222 0.06667,-0.007 0.133339,-0.0147 0.200008,-0.0221 0.06667,-0.007 0.133338,-0.0147 0.200008,-0.022 0.06667,-0.007 0.133338,-0.0147 0.200007,-0.022 0.06667,-0.007 0.133339,-0.0146 0.200008,-0.0219 0.06667,-0.007 0.133339,-0.0146 0.200008,-0.0219 0.06667,-0.007 0.133338,-0.0145 0.200008,-0.0218 0.06667,-0.007 0.133338,-0.0145 0.200007,-0.0217 0.06667,-0.007 0.133339,-0.0145 0.200008,-0.0217 0.06667,-0.007 0.133339,-0.0144 0.200008,-0.0216 0.06667,-0.007 0.133338,-0.0144 0.200008,-0.0215 0.06667,-0.007 0.133338,-0.0143 0.200007,-0.0215 0.06667,-0.007 0.133339,-0.0143 0.200008,-0.0214 0.06667,-0.007 0.133339,-0.0143 0.200008,-0.0214 0.06667,-0.007 0.133338,-0.0142 0.200008,-0.0213 0.06667,-0.007 0.133338,-0.0142 0.200007,-0.0212 0.06667,-0.007 0.133339,-0.0141 0.200008,-0.0212 0.06667,-0.007 0.133339,-0.0141 0.200008,-0.0211 0.06667,-0.007 0.133338,-0.0141 0.200008,-0.0211 0.06667,-0.007 0.133338,-0.014 0.200007,-0.021 0.06667,-0.007 0.133339,-0.014 0.200008,-0.021 0.06667,-0.007 0.133339,-0.0139 0.200008,-0.0209 0.06667,-0.007 0.133338,-0.0139 0.200007,-0.0208 0.06667,-0.007 0.133339,-0.0139 0.200008,-0.0208 0.06667,-0.007 0.133339,-0.0138 0.200008,-0.0207 0.06667,-0.007 0.133338,-0.0138 0.200008,-0.0207 0.06667,-0.007 0.133338,-0.0138 0.200007,-0.0206 0.06667,-0.007 0.133339,-0.0137 0.200008,-0.0206 0.06667,-0.007 0.133339,-0.0137 0.200008,-0.0205 0.06667,-0.007 0.133338,-0.0136 0.200008,-0.0205 0.06667,-0.007 0.133338,-0.0136 0.200007,-0.0204 0.06667,-0.007 0.133339,-0.0136 0.200008,-0.0203 0.06667,-0.007 0.133339,-0.0135 0.200008,-0.0203 0.06667,-0.007 0.133338,-0.0135 0.200008,-0.0202 0.06667,-0.007 0.133338,-0.0135 0.200007,-0.0202 0.06667,-0.007 0.133339,-0.0134 0.200008,-0.0201 0.06667,-0.007 0.133339,-0.0134 0.200008,-0.0201 0.06667,-0.007 0.133338,-0.0134 0.200008,-0.02 0.06667,-0.007 0.133338,-0.0133 0.200007,-0.02 0.06667,-0.007 0.133339,-0.0133 0.200008,-0.0199 0.06667,-0.007 0.133339,-0.0133 0.200008,-0.0199 0.06667,-0.007 0.133338,-0.0132 0.200008,-0.0198 0.06667,-0.007 0.133338,-0.0132 0.200007,-0.0198 0.06667,-0.007 0.133339,-0.0131 0.200008,-0.0197 0.06667,-0.007 0.133339,-0.0131 0.200008,-0.0197 0.06667,-0.007 0.133338,-0.0131 0.200008,-0.0196 0.06667,-0.007 0.133338,-0.013 0.200007,-0.0196 0.06667,-0.007 0.133339,-0.013 0.200008,-0.0195 0.06667,-0.006 0.133339,-0.013 0.200008,-0.0195 0.06667,-0.006 0.133338,-0.0129 0.200008,-0.0194 0.06667,-0.006 0.133338,-0.0129 0.200007,-0.0194 0.06667,-0.006 0.133339,-0.0129 0.200008,-0.0193 0.06667,-0.006 0.133339,-0.0128 0.200008,-0.0193 0.06667,-0.006 0.133338,-0.0128 0.200008,-0.0192 0.06667,-0.006 0.133338,-0.0128 0.200007,-0.0192 0.06667,-0.006 0.133339,-0.0128 0.200008,-0.0191 0.06667,-0.006 0.133339,-0.0127 0.200008,-0.0191 0.06667,-0.006 0.133338,-0.0127 0.200008,-0.019 0.06667,-0.006 0.133338,-0.0127 0.200007,-0.019 0.06667,-0.006 0.133339,-0.0126 0.200008,-0.0189 0.06667,-0.006 0.133338,-0.0126 0.200008,-0.0189 0.06667,-0.006 0.133338,-0.0126 0.200007,-0.0188 0.06667,-0.006 0.133339,-0.0125 0.200008,-0.0188 0.06667,-0.006 0.133339,-0.0125 0.200008,-0.0187 0.06667,-0.006 0.133338,-0.0125 0.200008,-0.0187 0.06667,-0.006 0.133338,-0.0124 0.200007,-0.0186 0.06667,-0.006 0.133339,-0.0124 0.200008,-0.0186 0.06667,-0.006 0.133339,-0.0124 0.200008,-0.0186 0.06667,-0.006 0.133338,-0.0123 0.200008,-0.0185 0.06667,-0.006 0.133338,-0.0123 0.200007,-0.0185 0.06667,-0.006 0.133339,-0.0123 0.200008,-0.0184 0.06667,-0.006 0.133339,-0.0123 0.200008,-0.0184 0.06667,-0.006 0.133338,-0.0122 0.200008,-0.0183 0.06667,-0.006 0.133338,-0.0122 0.200007,-0.0183 0.06667,-0.006 0.133339,-0.0122 0.200008,-0.0182 0.06667,-0.006 0.133339,-0.0121 0.200008,-0.0182 0.06667,-0.006 0.133338,-0.0121 0.200008,-0.0181 0.06667,-0.006 0.133338,-0.0121 0.200007,-0.0181 0.06667,-0.006 0.133339,-0.0121 0.200008,-0.0181 0.06667,-0.006 0.133339,-0.012 0.200008,-0.018 0.06667,-0.006 0.133338,-0.012 0.200008,-0.018 0.06667,-0.006 0.133338,-0.0119 0.200007,-0.0179 0.06667,-0.006 0.133339,-0.0119 0.200008,-0.0179 0.06667,-0.006 0.133339,-0.0119 0.200008,-0.0178 0.06667,-0.006 0.133338,-0.0119 0.200008,-0.0178 0.06667,-0.006 0.133338,-0.0118 0.200007,-0.0178 0.06667,-0.006 0.133339,-0.0118 0.200008,-0.0177 0.06667,-0.006 0.133339,-0.0118 0.200008,-0.0177 0.06667,-0.006 0.133338,-0.0118 0.200008,-0.0176 0.06667,-0.006 0.133338,-0.0117 0.200007,-0.0176 0.06667,-0.006 0.133339,-0.0117 0.200008,-0.0175 0.06667,-0.006 0.133339,-0.0117 0.200008,-0.0175 0.06667,-0.006 0.133338,-0.0117 0.200008,-0.0175 0.0667,-0.006 0.13334,-0.0116 0.20001,-0.0174 0.0667,-0.006 0.13334,-0.0116 0.20001,-0.0174 0.0667,-0.006 0.13333,-0.0116 0.2,-0.0173 0.0667,-0.006 0.13334,-0.0115 0.20001,-0.0173 0.0667,-0.006 0.13334,-0.0115 0.20001,-0.0172 0.0667,-0.006 0.13334,-0.0115 0.20001,-0.0172 0.0667,-0.006 0.13333,-0.0114 0.2,-0.0172 0.0667,-0.006 0.13334,-0.0114 0.20001,-0.0171 0.0667,-0.006 0.13334,-0.0114 0.20001,-0.0171 0.0667,-0.006 0.13334,-0.0114 0.20001,-0.017 0.0667,-0.006 0.13334,-0.0114 0.2,-0.017 0.0667,-0.006 0.13334,-0.0113 0.20001,-0.017 0.0667,-0.006 0.13334,-0.0113 0.20001,-0.0169 0.0667,-0.006 0.13334,-0.0113 0.20001,-0.0169 0.0667,-0.006 0.13334,-0.0112 0.20001,-0.0169 0.0667,-0.006 0.13333,-0.0112 0.2,-0.0168 0.0667,-0.006 0.13334,-0.0112 0.20001,-0.0168 0.0667,-0.006 0.13334,-0.0112 0.20001,-0.0167 0.0667,-0.006 0.13334,-0.0111 0.20001,-0.0167 0.0667,-0.006 0.13334,-0.0111 0.2,-0.0167 0.0667,-0.006 0.13334,-0.0111 0.20001,-0.0166 0.0667,-0.006 0.13334,-0.0111 0.20001,-0.0166 0.0667,-0.006 0.13334,-0.011 0.20001,-0.0165 0.0667,-0.006 0.13334,-0.011 0.20001,-0.0165 0.0667,-0.006 0.13333,-0.011 0.2,-0.0165 0.0667,-0.005 0.13334,-0.011 0.20001,-0.0164 0.0667,-0.005 0.13334,-0.0109 0.20001,-0.0164 0.0667,-0.005 0.13334,-0.0109 0.20001,-0.0164 0.0667,-0.005 0.13333,-0.0109 0.2,-0.0163 0.0667,-0.005 0.13334,-0.0109 0.20001,-0.0163 0.0667,-0.005 0.13334,-0.0108 0.20001,-0.0163 0.0667,-0.005 0.13334,-0.0108 0.20001,-0.0162 0.0667,-0.005 0.13334,-0.0108 0.20001,-0.0162 0.0667,-0.005 0.13333,-0.0108 0.2,-0.0161 0.0667,-0.005 0.13334,-0.0108 0.20001,-0.0161 0.0667,-0.005 0.13334,-0.0107 0.20001,-0.0161 0.0667,-0.005 0.13334,-0.0107 0.20001,-0.016 0.0667,-0.005 0.13333,-0.0107 0.2,-0.016 0.0667,-0.005 0.13334,-0.0106 0.20001,-0.016 0.0667,-0.005 0.13334,-0.0106 0.20001,-0.0159 0.0667,-0.005 0.13334,-0.0106 0.20001,-0.0159 0.0667,-0.005 0.13334,-0.0106 0.2,-0.0159 0.0667,-0.005 0.13334,-0.0106 0.20001,-0.0158 0.0667,-0.005 0.13334,-0.0105 0.20001,-0.0158 0.0667,-0.005 0.13334,-0.0105 0.20001,-0.0158 0.0667,-0.005 0.13334,-0.0105 0.20001,-0.0157 0.0667,-0.005 0.13333,-0.0105 0.2,-0.0157 0.0667,-0.005 0.13334,-0.0104 0.20001,-0.0157 0.0667,-0.005 0.13334,-0.0104 0.20001,-0.0156 0.0667,-0.005 0.13334,-0.0104 0.20001,-0.0156 0.0667,-0.005 0.13334,-0.0104 0.2,-0.0155 0.0667,-0.005 0.13334,-0.0104 0.20001,-0.0155 0.0667,-0.005 0.13334,-0.0103 0.20001,-0.0155 0.0667,-0.005 0.13334,-0.0103 0.20001,-0.0155 0.0667,-0.005 0.13334,-0.0103 0.20001,-0.0154 0.0667,-0.005 0.13333,-0.0103 0.2,-0.0154 0.0667,-0.005 0.13334,-0.0102 0.20001,-0.0154 0.0667,-0.005 0.13334,-0.0102 0.20001,-0.0153 0.0667,-0.005 0.13334,-0.0102 0.20001,-0.0153 0.0667,-0.005 0.13333,-0.0102 0.2,-0.0153 0.0667,-0.005 0.13334,-0.0102 0.20001,-0.0152 0.0667,-0.005 0.13334,-0.0101 0.20001,-0.0152 0.0667,-0.005 0.13334,-0.0101 0.20001,-0.0152 0.0667,-0.005 0.13334,-0.0101 0.20001,-0.0151 0.0667,-0.005 0.13333,-0.0101 0.2,-0.0151 0.0667,-0.005 0.13334,-0.0101 0.20001,-0.0151 0.0667,-0.005 0.13334,-0.01 0.20001,-0.015 0.0667,-0.005 0.13334,-0.01 0.20001,-0.015 0.0667,-0.005 0.13333,-0.01 0.2,-0.015 0.0667,-0.005 0.13334,-0.01 0.20001,-0.0149 0.0667,-0.005 0.13334,-0.01 0.20001,-0.0149 0.0667,-0.005 0.13334,-0.01 0.20001,-0.0149 0.0667,-0.005 0.13334,-0.01 0.2,-0.0148 0.0667,-0.005 0.13334,-0.01 0.20001,-0.0148 0.0667,-0.005 0.13334,-0.01 0.20001,-0.0148 0.0667,-0.005 0.13334,-0.01 0.20001,-0.0148 0.0667,-0.005 0.13334,-0.01 0.20001,-0.0147 0.0667,-0.005 0.13333,-0.01 0.2,-0.0147 0.0667,-0.005 0.13334,-0.01 0.20001,-0.0147 0.0667,-0.005 0.13334,-0.01 0.20001,-0.0146 0.0667,-0.005 0.13334,-0.01 0.20001,-0.0146 0.0667,-0.005 0.13334,-0.01 0.2,-0.0146 0.0667,-0.005 0.13334,-0.01 0.20001,-0.0145 0.0667,-0.005 0.13334,-0.01 0.20001,-0.0145 0.0667,-0.005 0.13334,-0.01 0.20001,-0.0145 0.0667,-0.005 0.13334,-0.01 0.20001,-0.0145 0.0667,-0.005 0.13333,-0.01 0.2,-0.0144 0.0667,-0.005 0.13334,-0.01 0.20001,-0.0144 0.0667,-0.005 0.13334,-0.01 0.20001,-0.0144 0.0667,-0.005 0.13334,-0.01 0.20001,-0.0143 0.0667,-0.005 0.13333,-0.01 0.2,-0.0143 0.0667,-0.005 0.13334,-0.01 0.20001,-0.0143 0.0667,-0.005 0.13334,-0.01 0.20001,-0.0143 0.0667,-0.005 0.13334,-0.009 0.20001,-0.0142 0.0667,-0.005 0.13334,-0.009 0.20001,-0.0142 0.0667,-0.005 0.13333,-0.009 0.2,-0.0142 0.0667,-0.005 0.13334,-0.009 0.20001,-0.0141 0.0667,-0.005 0.13334,-0.009 0.20001,-0.0141 0.0667,-0.005 0.13334,-0.009 0.20001,-0.0141 0.0667,-0.005 0.13333,-0.009 0.2,-0.0141 0.0667,-0.005 0.13334,-0.009 0.20001,-0.014 0.0667,-0.005 0.13334,-0.009 0.20001,-0.014 0.0667,-0.005 0.13334,-0.009 0.20001,-0.014 0.0667,-0.005 0.13334,-0.009 0.2,-0.0139 0.0667,-0.005 0.13334,-0.009 0.20001,-0.0139 0.0667,-0.005 0.13334,-0.009 0.20001,-0.0139 0.0667,-0.005 0.13334,-0.009 0.20001,-0.0139 0.0667,-0.005 0.13334,-0.009 0.20001,-0.0138 0.0667,-0.005 0.13333,-0.009 0.2,-0.0138 0.0667,-0.005 0.13334,-0.009 0.20001,-0.0138 0.0667,-0.005 0.13334,-0.009 0.20001,-0.0138 0.0667,-0.005 0.13334,-0.009 0.20001,-0.0137 0.0667,-0.005 0.13334,-0.009 0.2,-0.0137 0.0667,-0.005 0.13334,-0.009 0.20001,-0.0137 0.0667,-0.005 0.13334,-0.009 0.20001,-0.0136 0.0667,-0.005 0.13334,-0.009 0.20001,-0.0136 0.0667,-0.005 0.13334,-0.009 0.20001,-0.0136 0.0667,-0.005 0.13333,-0.009 0.2,-0.0136 0.0667,-0.005 0.13334,-0.009 0.20001,-0.0135 0.0667,-0.005 0.13334,-0.009 0.20001,-0.0135 0.0667,-0.004 0.13334,-0.009 0.20001,-0.0135 0.0667,-0.005 0.13333,-0.009 0.2,-0.0135 0.0667,-0.004 0.13334,-0.009 0.20001,-0.0134 0.0667,-0.004 0.13334,-0.009 0.20001,-0.0134 0.0667,-0.004 0.13334,-0.009 0.20001,-0.0134 0.0667,-0.004 0.13334,-0.009 0.20001,-0.0134 0.0667,-0.004 0.13333,-0.009 0.2,-0.0133 0.0667,-0.004 0.13334,-0.009 0.20001,-0.0133 0.0667,-0.004 0.13334,-0.009 0.20001,-0.0133 0.0667,-0.004 0.13334,-0.009 0.20001,-0.0133 0.0667,-0.004 0.13333,-0.009 0.2,-0.0132 0.0667,-0.004 0.13334,-0.009 0.20001,-0.0132 0.0667,-0.004 0.13334,-0.009 0.20001,-0.0132 0.0667,-0.004 0.13334,-0.009 0.20001,-0.0132 0.0667,-0.004 0.13334,-0.009 0.2,-0.0131 0.0667,-0.004 0.13334,-0.009 0.20001,-0.0131 0.0667,-0.004 0.13334,-0.009 0.20001,-0.0131 0.0667,-0.004 0.13334,-0.009 0.20001,-0.0131 0.0667,-0.004 0.13334,-0.009 0.20001,-0.013 0.0667,-0.004 0.13333,-0.009 0.2,-0.013 0.0667,-0.004 0.13334,-0.009 0.20001,-0.013 0.0667,-0.004 0.13334,-0.009 0.20001,-0.013 0.0667,-0.004 0.13334,-0.009 0.20001,-0.0129 0.0667,-0.004 0.13334,-0.009 0.2,-0.0129 0.0667,-0.004 0.13334,-0.009 0.20001,-0.0129 0.0667,-0.004 0.13334,-0.009 0.20001,-0.0129 0.0667,-0.004 0.13334,-0.009 0.20001,-0.0128 0.0667,-0.004 0.13334,-0.009 0.20001,-0.0128 0.0667,-0.004 0.13333,-0.009 0.2,-0.0128 0.0667,-0.004 0.13334,-0.009 0.20001,-0.0128 0.0667,-0.004 0.13334,-0.008 0.20001,-0.0127 0.0667,-0.004 0.13334,-0.008 0.20001,-0.0127 0.0667,-0.004 0.13334,-0.008 0.2,-0.0127 0.0667,-0.004 0.13334,-0.008 0.20001,-0.0127 0.0667,-0.004 0.13334,-0.008 0.20001,-0.0127 0.0667,-0.004 0.13334,-0.008 0.20001,-0.0126 0.0667,-0.004 0.13334,-0.008 0.20001,-0.0126 0.0667,-0.004 0.13333,-0.008 0.2,-0.0126 0.0667,-0.004 0.13334,-0.008 0.20001,-0.0126 0.0667,-0.004 0.13334,-0.008 0.20001,-0.0125 0.0667,-0.004 0.13334,-0.008 0.20001,-0.0125 0.0667,-0.004 0.13333,-0.008 0.2,-0.0125 0.0667,-0.004 0.13334,-0.008 0.20001,-0.0125 0.0667,-0.004 0.13334,-0.008 0.20001,-0.0125 0.0667,-0.004 0.13334,-0.008 0.20001,-0.0124 0.0667,-0.004 0.13334,-0.008 0.2,-0.0124 0.0667,-0.004 0.13334,-0.008 0.20001,-0.0124 0.0667,-0.004 0.13334,-0.008 0.20001,-0.0124 0.0667,-0.004 0.13334,-0.008 0.20001,-0.0123 0.0667,-0.004 0.13334,-0.008 0.20001,-0.0123 0.0667,-0.004 0.13333,-0.008 0.2,-0.0123 0.0667,-0.004 0.13334,-0.008 0.20001,-0.0123 0.0667,-0.004 0.13334,-0.008 0.20001,-0.0122 0.0667,-0.004 0.13334,-0.008 0.20001,-0.0122 0.0667,-0.004 0.13334,-0.008 0.2,-0.0122 0.0667,-0.004 0.13334,-0.008 0.20001,-0.0122 0.0667,-0.004 0.13334,-0.008 0.20001,-0.0122 0.0667,-0.004 0.13334,-0.008 0.20001,-0.0121 0.0667,-0.004 0.13334,-0.008 0.20001,-0.0121 0.0667,-0.004 0.13333,-0.008 0.2,-0.0121 0.0667,-0.004 0.13334,-0.008 0.20001,-0.0121 0.0667,-0.004 0.13334,-0.008 0.20001,-0.0121 0.0667,-0.004 0.13334,-0.008 0.20001,-0.012 0.0667,-0.004 0.13334,-0.008 0.2,-0.012 0.0667,-0.004 0.13334,-0.008 0.20001,-0.012 0.0667,-0.004 0.13334,-0.008 0.20001,-0.012 0.0667,-0.004 0.13334,-0.008 0.20001,-0.0119 0.0667,-0.004 0.13334,-0.008 0.20001,-0.0119 0.0667,-0.004 0.13333,-0.008 0.2,-0.0119 0.0667,-0.004 0.13334,-0.008 0.20001,-0.0119 0.0667,-0.004 0.13334,-0.008 0.20001,-0.0119 0.0667,-0.004 0.13334,-0.008 0.20001,-0.0118 0.0667,-0.004 0.13333,-0.008 0.2,-0.0118 0.0667,-0.004 0.13334,-0.008 0.20001,-0.0118 0.0667,-0.004 0.13334,-0.008 0.20001,-0.0118 0.0667,-0.004 0.13334,-0.008 0.20001,-0.0118 0.0667,-0.004 0.13334,-0.008 0.20001,-0.0117 0.0667,-0.004 0.13333,-0.008 0.2,-0.0117 0.0667,-0.004 0.13334,-0.008 0.20001,-0.0117 0.0667,-0.004 0.13334,-0.008 0.20001,-0.0117 0.0667,-0.004 0.13334,-0.008 0.20001,-0.0117 0.0667,-0.004 0.13333,-0.008 0.2,-0.0116 0.0667,-0.004 0.13334,-0.008 0.20001,-0.0116 0.0667,-0.004 0.13334,-0.008 0.20001,-0.0116 0.0667,-0.004 0.13334,-0.008 0.20001,-0.0116 0.0667,-0.004 0.13334,-0.008 0.2,-0.0116 0.0667,-0.004 0.13334,-0.008 0.20001,-0.0115 0.0667,-0.004 0.13334,-0.008 0.20001,-0.0115 0.0667,-0.004 0.13334,-0.008 0.20001,-0.0115 0.0667,-0.004 0.13334,-0.008 0.20001,-0.0115 0.0667,-0.004 0.13333,-0.008 0.2,-0.0115 0.0667,-0.004 0.13334,-0.008 0.20001,-0.0115 0.0667,-0.004 0.13334,-0.008 0.20001,-0.0114 0.0667,-0.004 0.13334,-0.008 0.20001,-0.0114 0.0667,-0.004 0.13334,-0.008 0.2,-0.0114 0.0667,-0.004 0.13334,-0.008 0.20001,-0.0114 0.0667,-0.004 0.13334,-0.008 0.20001,-0.0114 0.0667,-0.004 0.13334,-0.008 0.20001,-0.0113 0.0667,-0.004 0.13334,-0.008 0.20001,-0.0113 0.0667,-0.004 0.13333,-0.008 0.2,-0.0113 0.0667,-0.004 0.13334,-0.008 0.20001,-0.0113 0.0667,-0.004 0.13334,-0.008 0.20001,-0.0113 0.0667,-0.004 0.13334,-0.007 0.20001,-0.0112 0.0667,-0.004 0.13333,-0.007 0.2,-0.0112 0.0667,-0.004 0.13334,-0.007 0.20001,-0.0112 0.0667,-0.004 0.13334,-0.007 0.20001,-0.0112 0.0667,-0.004 0.13334,-0.007 0.20001,-0.0112 0.0667,-0.004 0.13334,-0.007 0.20001,-0.0111 0.0667,-0.004 0.13333,-0.007 0.2,-0.0111 0.0667,-0.004 0.13334,-0.007 0.20001,-0.0111 0.0667,-0.004 0.13334,-0.007 0.20001,-0.0111 0.0667,-0.004 0.13334,-0.007 0.20001,-0.0111 0.0667,-0.004 0.13333,-0.007 0.2,-0.0111 0.0667,-0.004 0.13334,-0.007 0.20001,-0.011 0.0667,-0.004 0.13334,-0.007 0.20001,-0.011 0.0667,-0.004 0.13334,-0.007 0.20001,-0.011 0.0667,-0.004 0.13334,-0.007 0.2,-0.011 0.0667,-0.004 0.13334,-0.007 0.20001,-0.011 0.0667,-0.004 0.13334,-0.007 0.20001,-0.011"
         style="opacity:1;fill:none;fill-opacity:1;fill-rule:evenodd;stroke:#0000ff;stroke-width:1;stroke-linecap:round;stroke-linejoin:round;stroke-miterlimit:4;stroke-dasharray:none;stroke-dashoffset:0;stroke-opacity:1;paint-order:markers stroke fill"
         inkscape:connector-curvature="0" />
    </g>
    <path
       inkscape:connector-curvature="0"
       id="path4787"
       d="M 32.657158,122.12516 V 100.96075 76.773045 H 47.774306 V 91.890204 H 65.915414 V 67.702496 H 50.798251 c -2.506674,0 -4.535272,-2.031775 -4.535272,-4.535276 0,-2.503515 2.0283,-4.534646 4.534961,-4.534646 h 39.305183 c 2.506672,0 4.535282,2.031766 4.535282,4.53527 0,2.503513 -2.02861,4.535292 -4.535282,4.535292 H 74.985957 v 24.187709 h 29.100823 c 27.87943,0 36.6474,18.588165 37.39106,28.417555 0.0151,0.22986 0.0244,0.45657 0.0244,0.68327 v 16.25098 h 9.07024 V 149.3365 H 114.2909 v -12.09385 h 9.07055 v -15.80359 c -0.2267,-1.68398 -2.28281,-11.40743 -19.27461,-11.40743 H 47.774677 v 12.09385 H 32.657195 Z"
       style="stroke-width:0.31617925" />
    <path
       style="fill:none;stroke:#ff0000;stroke-width:0.26499999;stroke-linecap:butt;stroke-linejoin:miter;stroke-miterlimit:4;stroke-dasharray:none;stroke-opacity:1;marker-end:url(#Arrow1Lend)"
       d="M 98.107846,149.3365 H 114.2909"
       id="path6290"
       inkscape:connector-curvature="0" />
    <path
       inkscape:connector-curvature="0"
       id="path6796"
       d="M 166.75553,149.3365 H 150.57248"
       style="fill:none;stroke:#ff0000;stroke-width:0.26499999;stroke-linecap:butt;stroke-linejoin:miter;stroke-miterlimit:4;stroke-dasharray:none;stroke-opacity:1;marker-end:url(#marker6800)" />
    <text
       xml:space="preserve"
       style="font-style:normal;font-variant:normal;font-weight:normal;font-stretch:normal;font-size:8.46666622px;line-height:10.58333302px;font-family:Cambria;-inkscape-font-specification:Cambria;font-variant-ligatures:normal;font-variant-caps:normal;font-variant-numeric:normal;font-feature-settings:normal;text-align:start;letter-spacing:0px;word-spacing:0px;writing-mode:lr-tb;text-anchor:start;fill:none;fill-opacity:1;stroke:#000000;stroke-width:0.2;stroke-miterlimit:4;stroke-dasharray:none;stroke-dashoffset:0;stroke-opacity:1"
       x="61.400406"
       y="151.35251"
       id="text6940"><tspan
         sodipodi:role="line"
         id="tspan6938"
         x="61.400406"
         y="151.35251"
         style="font-style:normal;font-variant:normal;font-weight:normal;font-stretch:normal;line-height:10.58333302px;font-family:Cambria;-inkscape-font-specification:Cambria;fill:#ff0000;fill-opacity:1;stroke:#ff0000;stroke-width:0.2;stroke-linecap:square;stroke-linejoin:miter;stroke-miterlimit:4;stroke-dasharray:none;stroke-dashoffset:0;stroke-opacity:1;paint-order:markers fill stroke">D=0.5 cm</tspan></text>
    <path
       style="fill:none;stroke:#ff0000;stroke-width:0.26499999;stroke-linecap:butt;stroke-linejoin:miter;stroke-miterlimit:4;stroke-dasharray:none;stroke-opacity:1;marker-end:url(#Arrow1Lend-0)"
       d="m 106.16216,209.10397 h 16.18305"
       id="path6290-6"
       inkscape:connector-curvature="0" />
    <path
       inkscape:connector-curvature="0"
       id="path6796-7"
       d="M 159.16589,209.10397 H 142.98284"
       style="fill:none;stroke:#ff0000;stroke-width:0.26499999;stroke-linecap:butt;stroke-linejoin:miter;stroke-miterlimit:4;stroke-dasharray:none;stroke-opacity:1;marker-end:url(#marker6800-0)" />
    <text
       id="text7898"
       y="210.84903"
       x="87.578873"
       style="font-style:normal;font-variant:normal;font-weight:normal;font-stretch:normal;font-size:8.46666622px;line-height:10.58333302px;font-family:Cambria;-inkscape-font-specification:Cambria;font-variant-ligatures:normal;font-variant-caps:normal;font-variant-numeric:normal;font-feature-settings:normal;text-align:start;letter-spacing:0px;word-spacing:0px;writing-mode:lr-tb;text-anchor:start;fill:none;fill-opacity:1;stroke:#000000;stroke-width:0.2;stroke-miterlimit:4;stroke-dasharray:none;stroke-dashoffset:0;stroke-opacity:1"
       xml:space="preserve"><tspan
         style="font-style:normal;font-variant:normal;font-weight:normal;font-stretch:normal;line-height:10.58333302px;font-family:Cambria;-inkscape-font-specification:Cambria;fill:#ff0000;fill-opacity:1;stroke:#ff0000;stroke-width:0.2;stroke-linecap:square;stroke-linejoin:miter;stroke-miterlimit:4;stroke-dasharray:none;stroke-dashoffset:0;stroke-opacity:1;paint-order:markers fill stroke"
         y="210.84903"
         x="87.578873"
         id="tspan7896"
         sodipodi:role="line">D= ?</tspan></text>
    <path
       inkscape:connector-curvature="0"
       id="path8080"
       d="M 160.7534,208.5748 V 150.57258"
       style="fill:none;stroke:#ff0000;stroke-width:0.26499999;stroke-linecap:butt;stroke-linejoin:miter;stroke-miterlimit:4;stroke-dasharray:none;stroke-opacity:1;marker-start:url(#Arrow1Lstart);marker-end:url(#marker8084)" />
    <text
       xml:space="preserve"
       style="font-style:normal;font-variant:normal;font-weight:normal;font-stretch:normal;font-size:8.46666622px;line-height:10.58333302px;font-family:Cambria;-inkscape-font-specification:Cambria;font-variant-ligatures:normal;font-variant-caps:normal;font-variant-numeric:normal;font-feature-settings:normal;text-align:start;letter-spacing:0px;word-spacing:0px;writing-mode:lr-tb;text-anchor:start;fill:none;fill-opacity:1;stroke:#000000;stroke-width:0.2;stroke-miterlimit:4;stroke-dasharray:none;stroke-dashoffset:0;stroke-opacity:1"
       x="163.93877"
       y="180.13947"
       id="text6940-4"><tspan
         sodipodi:role="line"
         id="tspan6938-0"
         x="163.93877"
         y="180.13947"
         style="font-style:normal;font-variant:normal;font-weight:normal;font-stretch:normal;line-height:10.58333302px;font-family:Cambria;-inkscape-font-specification:Cambria;fill:#ff0000;fill-opacity:1;stroke:#ff0000;stroke-width:0.2;stroke-linecap:square;stroke-linejoin:miter;stroke-miterlimit:4;stroke-dasharray:none;stroke-dashoffset:0;stroke-opacity:1;paint-order:markers fill stroke">D=5 cm</tspan></text>
  </g>
</svg>
