<?xml version="1.0" encoding="UTF-8" standalone="no"?>
<!-- Created with Inkscape (http://www.inkscape.org/) -->

<svg
   xmlns:dc="http://purl.org/dc/elements/1.1/"
   xmlns:cc="http://creativecommons.org/ns#"
   xmlns:rdf="http://www.w3.org/1999/02/22-rdf-syntax-ns#"
   xmlns:svg="http://www.w3.org/2000/svg"
   xmlns="http://www.w3.org/2000/svg"
   xmlns:sodipodi="http://sodipodi.sourceforge.net/DTD/sodipodi-0.dtd"
   xmlns:inkscape="http://www.inkscape.org/namespaces/inkscape"
   width="92.845108mm"
   height="47.145454mm"
   viewBox="0 0 92.845108 47.145453"
   version="1.1"
   id="svg3565"
   sodipodi:docname="water_jet_force.svg"
   inkscape:version="0.92.4 (5da689c313, 2019-01-14)">
  <defs
     id="defs3559">
    <marker
       inkscape:isstock="true"
       style="overflow:visible"
       id="marker4838"
       refX="0"
       refY="0"
       orient="auto"
       inkscape:stockid="Arrow2Mend">
      <path
         transform="scale(-0.6)"
         d="M 8.7185878,4.0337352 -2.2072895,0.01601326 8.7185884,-4.0017078 c -1.7454984,2.3720609 -1.7354408,5.6174519 -6e-7,8.035443 z"
         style="fill:#000000;fill-opacity:1;fill-rule:evenodd;stroke:#000000;stroke-width:0.625;stroke-linejoin:round;stroke-opacity:1"
         id="path4836"
         inkscape:connector-curvature="0" />
    </marker>
    <marker
       inkscape:stockid="Arrow2Mend"
       orient="auto"
       refY="0"
       refX="0"
       id="Arrow2Mend"
       style="overflow:visible"
       inkscape:isstock="true"
       inkscape:collect="always">
      <path
         id="path4441"
         style="fill:#000000;fill-opacity:1;fill-rule:evenodd;stroke:#000000;stroke-width:0.625;stroke-linejoin:round;stroke-opacity:1"
         d="M 8.7185878,4.0337352 -2.2072895,0.01601326 8.7185884,-4.0017078 c -1.7454984,2.3720609 -1.7354408,5.6174519 -6e-7,8.035443 z"
         transform="scale(-0.6)"
         inkscape:connector-curvature="0" />
    </marker>
    <inkscape:path-effect
       only_selected="false"
       apply_with_weight="true"
       apply_no_weight="true"
       helper_size="0"
       steps="2"
       weight="33.333333"
       is_visible="true"
       id="path-effect4198"
       effect="bspline" />
    <inkscape:path-effect
       only_selected="false"
       apply_with_weight="true"
       apply_no_weight="true"
       helper_size="0"
       steps="2"
       weight="33.333333"
       is_visible="true"
       id="path-effect4194"
       effect="bspline" />
  </defs>
  <sodipodi:namedview
     id="base"
     pagecolor="#ffffff"
     bordercolor="#666666"
     borderopacity="1.0"
     inkscape:pageopacity="0.0"
     inkscape:pageshadow="2"
     inkscape:zoom="2.0726562"
     inkscape:cx="172.56772"
     inkscape:cy="116.73539"
     inkscape:document-units="mm"
     inkscape:current-layer="layer1"
     showgrid="false"
     inkscape:snap-midpoints="true"
     inkscape:window-width="1638"
     inkscape:window-height="891"
     inkscape:window-x="84"
     inkscape:window-y="49"
     inkscape:window-maximized="0"
     fit-margin-left="5"
     fit-margin-right="5"
     fit-margin-bottom="5"
     fit-margin-top="5" />
  <metadata
     id="metadata3562">
    <rdf:RDF>
      <cc:Work
         rdf:about="">
        <dc:format>image/svg+xml</dc:format>
        <dc:type
           rdf:resource="http://purl.org/dc/dcmitype/StillImage" />
        <dc:title></dc:title>
      </cc:Work>
    </rdf:RDF>
  </metadata>
  <g
     inkscape:label="Layer 1"
     inkscape:groupmode="layer"
     id="layer1"
     transform="translate(3.1477619,-25.045061)">
    <path
       style="fill:none;stroke:#000000;stroke-width:0.26458332px;stroke-linecap:butt;stroke-linejoin:miter;stroke-opacity:1"
       d="m 3.7964756,46.106233 v -1.09172 H 1.9845298 v 7.37359 h 1.8119458 v -1.09172 l 12.9690354,-1.65534 v 0.43048 h 0.714465 v -2.90747 h -0.714465 v 0.43047 z"
       id="path1744"
       inkscape:connector-curvature="0" />
    <rect
       style="opacity:1;fill:#800000;fill-opacity:1;fill-rule:evenodd;stroke:#999999;stroke-width:0.2;stroke-linecap:square;stroke-linejoin:round;stroke-miterlimit:4;stroke-dasharray:0.39999999, 0.39999999;stroke-dashoffset:0;stroke-opacity:1;paint-order:markers stroke fill"
       id="rect4138"
       width="2.5589924"
       height="36.945454"
       x="82.038353"
       y="30.145061" />
    <g
       id="g4205"
       transform="translate(0,-0.49341033)">
      <path
         transform="matrix(1,0,0,-1,0,98.258152)"
         style="fill:none;stroke:#000000;stroke-width:0.26458332px;stroke-linecap:butt;stroke-linejoin:miter;stroke-opacity:1"
         d="m 17.479976,48.617787 c 19.755834,0 39.5114,0 59.266705,0"
         id="path4192"
         inkscape:connector-curvature="0"
         inkscape:path-effect="#path-effect4194"
         inkscape:original-d="m 17.479976,48.617787 c 19.755834,-2.64e-4 39.5114,-2.64e-4 59.266705,0" />
      <path
         transform="matrix(1,0,0,-1,0,98.258152)"
         style="fill:none;stroke:#000000;stroke-width:0.26458332px;stroke-linecap:butt;stroke-linejoin:miter;stroke-opacity:1"
         d="m 76.746681,48.617787 c 1.411375,0 2.822488,0 3.527912,-0.73304 0.705424,-0.73304 0.705424,-2.199403 0.705424,-3.665229"
         id="path4196"
         inkscape:connector-curvature="0"
         inkscape:path-effect="#path-effect4198"
         inkscape:original-d="m 76.746681,48.617787 c 1.411375,-2.64e-4 2.822488,-2.64e-4 4.233336,0 2.65e-4,-1.46608 2.65e-4,-2.932443 0,-4.398269" />
      <path
         style="fill:none;stroke:#000000;stroke-width:0.26458332px;stroke-linecap:butt;stroke-linejoin:miter;stroke-opacity:1"
         d="M 80.980017,54.038634 V 65.154256"
         id="path4200"
         inkscape:connector-curvature="0" />
    </g>
    <g
       id="g4213"
       transform="matrix(1,0,0,-1,0,97.728986)">
      <path
         inkscape:original-d="m 17.479976,48.617787 c 19.755834,-2.64e-4 39.5114,-2.64e-4 59.266705,0"
         inkscape:path-effect="#path-effect4194"
         inkscape:connector-curvature="0"
         id="path4207"
         d="m 17.479976,48.617787 c 19.755834,0 39.5114,0 59.266705,0"
         style="fill:none;stroke:#000000;stroke-width:0.26458332px;stroke-linecap:butt;stroke-linejoin:miter;stroke-opacity:1"
         transform="matrix(1,0,0,-1,0,98.258152)" />
      <path
         inkscape:original-d="m 76.746681,48.617787 c 1.411375,-2.64e-4 2.822488,-2.64e-4 4.233336,0 2.65e-4,-1.46608 2.65e-4,-2.932443 0,-4.398269"
         inkscape:path-effect="#path-effect4198"
         inkscape:connector-curvature="0"
         id="path4209"
         d="m 76.746681,48.617787 c 1.411375,0 2.822488,0 3.527912,-0.73304 0.705424,-0.73304 0.705424,-2.199403 0.705424,-3.665229"
         style="fill:none;stroke:#000000;stroke-width:0.26458332px;stroke-linecap:butt;stroke-linejoin:miter;stroke-opacity:1"
         transform="matrix(1,0,0,-1,0,98.258152)" />
      <path
         inkscape:connector-curvature="0"
         id="path4211"
         d="M 80.980017,54.038634 V 65.154256"
         style="fill:none;stroke:#000000;stroke-width:0.26458332px;stroke-linecap:butt;stroke-linejoin:miter;stroke-opacity:1" />
    </g>
    <path
       style="opacity:1;fill:#00ffff;fill-opacity:1;fill-rule:evenodd;stroke:#00ffff;stroke-width:0.22846732;stroke-linecap:square;stroke-linejoin:round;stroke-miterlimit:4;stroke-dasharray:0.45693462, 0.45693462;stroke-dashoffset:0;stroke-opacity:1;paint-order:markers stroke fill"
       d="m 306.69841,219.09584 c -0.13291,-27.24344 -0.12061,-27.07025 -2.1354,-30.07063 -1.05804,-1.57562 -3.16739,-2.83721 -5.79254,-3.46449 -1.15433,-0.27583 -28.72361,-0.38356 -116.74144,-0.45618 l -115.230226,-0.0951 v -1.35587 -1.35586 l 114.625736,-0.002 c 78.18264,-0.002 115.24404,-0.10261 116.5705,-0.31782 4.13877,-0.67152 6.68458,-2.60379 7.70506,-5.84816 0.92109,-2.92841 1.06329,-6.89257 1.07162,-29.87424 l 0.008,-22.59255 h 1.3601 c 1.34924,0 1.36025,0.008 1.37927,1.05785 0.0106,0.58182 0.0192,27.03566 0.0192,58.78631 0,31.75065 -0.009,58.27249 -0.0192,58.93742 l -0.0192,1.20898 h -1.34094 -1.34095 l -0.1198,-24.55726 z"
       id="path4225"
       inkscape:connector-curvature="0"
       transform="scale(0.26458333)" />
    <path
       style="opacity:1;fill:#b3b3b3;fill-opacity:1;fill-rule:evenodd;stroke:#b3b3b3;stroke-width:0.32310158;stroke-linecap:square;stroke-linejoin:round;stroke-miterlimit:4;stroke-dasharray:0.64620313, 0.64620313;stroke-dashoffset:0;stroke-opacity:1;paint-order:markers stroke fill"
       d="m 8.2568179,183.89117 v -13.25053 h 2.7783371 2.778337 v 2.13719 c 0,1.17545 0.08459,2.13718 0.187986,2.13718 0.103393,0 11.019051,1.24981 24.257019,2.77735 13.237967,1.52754 24.501811,2.77779 25.030764,2.77833 0.677106,6.9e-4 0.961732,-0.25201 0.961732,-0.85388 0,-0.47493 0.284959,-0.85487 0.641154,-0.85487 0.532749,0 0.641155,0.83112 0.641155,4.91552 0,4.08439 -0.108406,4.91552 -0.641155,4.91552 -0.356195,0 -0.641154,-0.37995 -0.641154,-0.85488 0,-0.47018 -0.155391,-0.85487 -0.345313,-0.85487 -0.522635,0 -47.106637,5.94457 -48.70302,6.21498 -1.324156,0.22429 -1.389168,0.32441 -1.389168,2.1394 v 1.90409 H 11.035155 8.2568179 Z"
       id="path4229"
       inkscape:connector-curvature="0"
       transform="scale(0.26458333)" />
    <path
       style="fill:none;stroke:#000000;stroke-width:0.14161424;stroke-linecap:butt;stroke-linejoin:miter;stroke-miterlimit:4;stroke-dasharray:none;stroke-opacity:1;marker-end:url(#Arrow2Mend)"
       d="M 23.184801,44.70477 30.227418,44.753"
       id="path4412"
       inkscape:connector-curvature="0" />
    <path
       inkscape:connector-curvature="0"
       id="path4834"
       d="m 23.184801,44.70477 0.04823,-7.042618"
       style="fill:none;stroke:#000000;stroke-width:0.14161424;stroke-linecap:butt;stroke-linejoin:miter;stroke-miterlimit:4;stroke-dasharray:none;stroke-opacity:1;marker-end:url(#marker4838)" />
    <text
       xml:space="preserve"
       style="font-style:normal;font-variant:normal;font-weight:normal;font-stretch:normal;font-size:3.52777767px;line-height:1.25;font-family:Calibri;-inkscape-font-specification:'Calibri, Normal';font-variant-ligatures:normal;font-variant-caps:normal;font-variant-numeric:normal;font-feature-settings:normal;text-align:start;letter-spacing:0px;word-spacing:0px;writing-mode:lr-tb;text-anchor:start;fill:#000000;fill-opacity:1;stroke:none;stroke-width:0.26458332"
       x="30.137154"
       y="44.211411"
       id="text5436"><tspan
         sodipodi:role="line"
         id="tspan5434"
         x="30.137154"
         y="44.211411"
         style="font-size:2.82222223px;stroke-width:0.26458332">+<tspan
   style="font-style:italic;font-variant:normal;font-weight:normal;font-stretch:normal;font-size:2.82222223px;font-family:Calibri;-inkscape-font-specification:'Calibri Italic'"
   id="tspan5438">x</tspan> direction</tspan></text>
  </g>
</svg>
